<?xml version="1.0" encoding="UTF-8" standalone="no"?>
<!DOCTYPE svg PUBLIC "-//W3C//DTD SVG 1.1//EN"
 "http://www.w3.org/Graphics/SVG/1.1/DTD/svg11.dtd">
<!-- Generated by graphviz version 2.40.1 (20161225.0304)
 -->
<!-- Title: %3 Pages: 1 -->
<svg width="1482pt" height="215pt"
 viewBox="0.00 0.00 1482.00 215.00" xmlns="http://www.w3.org/2000/svg" xmlns:xlink="http://www.w3.org/1999/xlink">
<g id="graph0" class="graph" transform="scale(1 1) rotate(0) translate(4 211)">
<title>%3</title>
<polygon fill="#ffffff" stroke="transparent" points="-4,4 -4,-211 1478,-211 1478,4 -4,4"/>
<!-- X1 -->
<g id="node1" class="node">
<title>X1</title>
<polygon fill="#ffffff" stroke="transparent" points="180,-175 0,-175 0,-14 180,-14 180,-175"/>
<polygon fill="none" stroke="#000000" points="0,-151.5 0,-174.5 180,-174.5 180,-151.5 0,-151.5"/>
<text text-anchor="start" x="80.5" y="-159.3" font-family="arial" font-size="14.00" fill="#000000">X1</text>
<polygon fill="none" stroke="#000000" points="0,-128.5 0,-151.5 99,-151.5 99,-128.5 0,-128.5"/>
<text text-anchor="start" x="4" y="-136.3" font-family="arial" font-size="14.00" fill="#000000">Molex KK 254</text>
<polygon fill="none" stroke="#000000" points="99,-128.5 99,-151.5 139,-151.5 139,-128.5 99,-128.5"/>
<text text-anchor="start" x="103" y="-136.3" font-family="arial" font-size="14.00" fill="#000000">male</text>
<polygon fill="none" stroke="#000000" points="139,-128.5 139,-151.5 180,-151.5 180,-128.5 139,-128.5"/>
<text text-anchor="start" x="143" y="-136.3" font-family="arial" font-size="14.00" fill="#000000">4&#45;pin</text>
<polygon fill="none" stroke="#000000" points="0,-105.5 0,-128.5 102,-128.5 102,-105.5 0,-105.5"/>
<text text-anchor="start" x="34.5" y="-113.3" font-family="arial" font-size="14.00" fill="#000000">GND</text>
<polygon fill="none" stroke="#000000" points="102,-105.5 102,-128.5 180,-128.5 180,-105.5 102,-105.5"/>
<text text-anchor="start" x="136.5" y="-113.3" font-family="arial" font-size="14.00" fill="#000000">1</text>
<polygon fill="none" stroke="#000000" points="0,-82.5 0,-105.5 102,-105.5 102,-82.5 0,-82.5"/>
<text text-anchor="start" x="35.5" y="-90.3" font-family="arial" font-size="14.00" fill="#000000">VCC</text>
<polygon fill="none" stroke="#000000" points="102,-82.5 102,-105.5 180,-105.5 180,-82.5 102,-82.5"/>
<text text-anchor="start" x="136.5" y="-90.3" font-family="arial" font-size="14.00" fill="#000000">2</text>
<polygon fill="none" stroke="#000000" points="0,-59.5 0,-82.5 102,-82.5 102,-59.5 0,-59.5"/>
<text text-anchor="start" x="36.5" y="-67.3" font-family="arial" font-size="14.00" fill="#000000">SCL</text>
<polygon fill="none" stroke="#000000" points="102,-59.5 102,-82.5 180,-82.5 180,-59.5 102,-59.5"/>
<text text-anchor="start" x="136.5" y="-67.3" font-family="arial" font-size="14.00" fill="#000000">3</text>
<polygon fill="none" stroke="#000000" points="0,-36.5 0,-59.5 102,-59.5 102,-36.5 0,-36.5"/>
<text text-anchor="start" x="35.5" y="-44.3" font-family="arial" font-size="14.00" fill="#000000">SDA</text>
<polygon fill="none" stroke="#000000" points="102,-36.5 102,-59.5 180,-59.5 180,-36.5 102,-36.5"/>
<text text-anchor="start" x="136.5" y="-44.3" font-family="arial" font-size="14.00" fill="#000000">4</text>
<polygon fill="none" stroke="#000000" points="0,-13.5 0,-36.5 180,-36.5 180,-13.5 0,-13.5"/>
<text text-anchor="start" x="34.5" y="-21.3" font-family="arial" font-size="14.00" fill="#000000">to microcontroller</text>
</g>
<!-- W1 -->
<g id="node4" class="node">
<title>W1</title>
<polygon fill="none" stroke="#000000" points="489,-207 324,-207 324,0 489,0 489,-207"/>
<polygon fill="none" stroke="#000000" points="324.5,-183.5 324.5,-206.5 489.5,-206.5 489.5,-183.5 324.5,-183.5"/>
<text text-anchor="start" x="396" y="-191.3" font-family="arial" font-size="14.00" fill="#000000">W1</text>
<polygon fill="none" stroke="#000000" points="324.5,-160.5 324.5,-183.5 360.5,-183.5 360.5,-160.5 324.5,-160.5"/>
<text text-anchor="start" x="334.5" y="-168.3" font-family="arial" font-size="14.00" fill="#000000">4x</text>
<polygon fill="none" stroke="#000000" points="360.5,-160.5 360.5,-183.5 433.5,-183.5 433.5,-160.5 360.5,-160.5"/>
<text text-anchor="start" x="370" y="-168.3" font-family="arial" font-size="14.00" fill="#000000">24 AWG</text>
<polygon fill="none" stroke="#000000" points="433.5,-160.5 433.5,-183.5 489.5,-183.5 489.5,-160.5 433.5,-160.5"/>
<text text-anchor="start" x="443" y="-168.3" font-family="arial" font-size="14.00" fill="#000000">0.3 m</text>
<text text-anchor="start" x="351.5" y="-147.3" font-family="arial" font-size="14.00" fill="#000000"> </text>
<text text-anchor="start" x="338" y="-128.3" font-family="arial" font-size="14.00" fill="#000000">X1:1</text>
<text text-anchor="start" x="397" y="-128.3" font-family="arial" font-size="14.00" fill="#000000">BN</text>
<text text-anchor="start" x="445.5" y="-128.3" font-family="arial" font-size="14.00" fill="#000000">X2:1</text>
<polygon fill="#000000" stroke="transparent" points="324.5,-120.5 324.5,-122.5 489.5,-122.5 489.5,-120.5 324.5,-120.5"/>
<polygon fill="#895956" stroke="transparent" points="324.5,-118.5 324.5,-120.5 489.5,-120.5 489.5,-118.5 324.5,-118.5"/>
<polygon fill="#000000" stroke="transparent" points="324.5,-116.5 324.5,-118.5 489.5,-118.5 489.5,-116.5 324.5,-116.5"/>
<text text-anchor="start" x="338" y="-103.3" font-family="arial" font-size="14.00" fill="#000000">X1:2</text>
<text text-anchor="start" x="396.5" y="-103.3" font-family="arial" font-size="14.00" fill="#000000">RD</text>
<text text-anchor="start" x="445.5" y="-103.3" font-family="arial" font-size="14.00" fill="#000000">X2:2</text>
<polygon fill="#000000" stroke="transparent" points="324.5,-95.5 324.5,-97.5 489.5,-97.5 489.5,-95.5 324.5,-95.5"/>
<polygon fill="#ff0000" stroke="transparent" points="324.5,-93.5 324.5,-95.5 489.5,-95.5 489.5,-93.5 324.5,-93.5"/>
<polygon fill="#000000" stroke="transparent" points="324.5,-91.5 324.5,-93.5 489.5,-93.5 489.5,-91.5 324.5,-91.5"/>
<text text-anchor="start" x="338" y="-78.3" font-family="arial" font-size="14.00" fill="#000000">X1:3</text>
<text text-anchor="start" x="396" y="-78.3" font-family="arial" font-size="14.00" fill="#000000">OG</text>
<text text-anchor="start" x="445.5" y="-78.3" font-family="arial" font-size="14.00" fill="#000000">X2:3</text>
<polygon fill="#000000" stroke="transparent" points="324.5,-70.5 324.5,-72.5 489.5,-72.5 489.5,-70.5 324.5,-70.5"/>
<polygon fill="#ff8000" stroke="transparent" points="324.5,-68.5 324.5,-70.5 489.5,-70.5 489.5,-68.5 324.5,-68.5"/>
<polygon fill="#000000" stroke="transparent" points="324.5,-66.5 324.5,-68.5 489.5,-68.5 489.5,-66.5 324.5,-66.5"/>
<text text-anchor="start" x="338" y="-53.3" font-family="arial" font-size="14.00" fill="#000000">X1:4</text>
<text text-anchor="start" x="397.5" y="-53.3" font-family="arial" font-size="14.00" fill="#000000">YE</text>
<text text-anchor="start" x="445.5" y="-53.3" font-family="arial" font-size="14.00" fill="#000000">X2:4</text>
<polygon fill="#000000" stroke="transparent" points="324.5,-45.5 324.5,-47.5 489.5,-47.5 489.5,-45.5 324.5,-45.5"/>
<polygon fill="#ffff00" stroke="transparent" points="324.5,-43.5 324.5,-45.5 489.5,-45.5 489.5,-43.5 324.5,-43.5"/>
<polygon fill="#000000" stroke="transparent" points="324.5,-41.5 324.5,-43.5 489.5,-43.5 489.5,-41.5 324.5,-41.5"/>
<text text-anchor="start" x="351.5" y="-28.3" font-family="arial" font-size="14.00" fill="#000000"> </text>
<polygon fill="none" stroke="#000000" points="324.5,.5 324.5,-22.5 489.5,-22.5 489.5,.5 324.5,.5"/>
<text text-anchor="start" x="328.5" y="-7.3" font-family="arial" font-size="14.00" fill="#000000">This cable is a bit longer</text>
</g>
<!-- X1&#45;&#45;W1 -->
<g id="edge1" class="edge">
<title>X1:e&#45;&#45;W1:w</title>
<path fill="none" stroke="#000000" stroke-width="2" d="M180,-115.5C244.4758,-115.5154 260.519,-117.5154 324.5,-117.5"/>
<path fill="none" stroke="#895956" stroke-width="2" d="M180,-117.5C244.2284,-117.5 260.2716,-119.5 324.5,-119.5"/>
<path fill="none" stroke="#000000" stroke-width="2" d="M180,-119.5C243.981,-119.4846 260.0242,-121.4846 324.5,-121.5"/>
</g>
<!-- X1&#45;&#45;W1 -->
<g id="edge3" class="edge">
<title>X1:e&#45;&#45;W1:w</title>
<path fill="none" stroke="#000000" stroke-width="2" d="M180,-91.5C244.3481,-91.5039 260.4006,-92.5039 324.5,-92.5"/>
<path fill="none" stroke="#ff0000" stroke-width="2" d="M180,-93.5C244.2238,-93.5 260.2762,-94.5 324.5,-94.5"/>
<path fill="none" stroke="#000000" stroke-width="2" d="M180,-95.5C244.0994,-95.4961 260.1519,-96.4961 324.5,-96.5"/>
</g>
<!-- X1&#45;&#45;W1 -->
<g id="edge5" class="edge">
<title>X1:e&#45;&#45;W1:w</title>
<path fill="none" stroke="#000000" stroke-width="2" d="M180,-68.5C244.0994,-68.5039 260.1519,-67.5039 324.5,-67.5"/>
<path fill="none" stroke="#ff8000" stroke-width="2" d="M180,-70.5C244.2238,-70.5 260.2762,-69.5 324.5,-69.5"/>
<path fill="none" stroke="#000000" stroke-width="2" d="M180,-72.5C244.3481,-72.4961 260.4006,-71.4961 324.5,-71.5"/>
</g>
<!-- X1&#45;&#45;W1 -->
<g id="edge7" class="edge">
<title>X1:e&#45;&#45;W1:w</title>
<path fill="none" stroke="#000000" stroke-width="2" d="M180,-45.5C243.8681,-45.5341 259.896,-42.5341 324.5,-42.5"/>
<path fill="none" stroke="#ffff00" stroke-width="2" d="M180,-47.5C244.2361,-47.5 260.2639,-44.5 324.5,-44.5"/>
<path fill="none" stroke="#000000" stroke-width="2" d="M180,-49.5C244.604,-49.4659 260.6319,-46.4659 324.5,-46.5"/>
</g>
<!-- X2 -->
<g id="node2" class="node">
<title>X2</title>
<polygon fill="#ffffff" stroke="transparent" points="825,-175 633,-175 633,-14 825,-14 825,-175"/>
<polygon fill="none" stroke="#000000" points="633,-151.5 633,-174.5 825,-174.5 825,-151.5 633,-151.5"/>
<text text-anchor="start" x="719.5" y="-159.3" font-family="arial" font-size="14.00" fill="#000000">X2</text>
<polygon fill="none" stroke="#000000" points="633,-128.5 633,-151.5 732,-151.5 732,-128.5 633,-128.5"/>
<text text-anchor="start" x="637" y="-136.3" font-family="arial" font-size="14.00" fill="#000000">Molex KK 254</text>
<polygon fill="none" stroke="#000000" points="732,-128.5 732,-151.5 784,-151.5 784,-128.5 732,-128.5"/>
<text text-anchor="start" x="736" y="-136.3" font-family="arial" font-size="14.00" fill="#000000">female</text>
<polygon fill="none" stroke="#000000" points="784,-128.5 784,-151.5 825,-151.5 825,-128.5 784,-128.5"/>
<text text-anchor="start" x="788" y="-136.3" font-family="arial" font-size="14.00" fill="#000000">4&#45;pin</text>
<polygon fill="none" stroke="#000000" points="633,-105.5 633,-128.5 689,-128.5 689,-105.5 633,-105.5"/>
<text text-anchor="start" x="656.5" y="-113.3" font-family="arial" font-size="14.00" fill="#000000">1</text>
<polygon fill="none" stroke="#000000" points="689,-105.5 689,-128.5 769,-128.5 769,-105.5 689,-105.5"/>
<text text-anchor="start" x="712.5" y="-113.3" font-family="arial" font-size="14.00" fill="#000000">GND</text>
<polygon fill="none" stroke="#000000" points="769,-105.5 769,-128.5 825,-128.5 825,-105.5 769,-105.5"/>
<text text-anchor="start" x="792.5" y="-113.3" font-family="arial" font-size="14.00" fill="#000000">1</text>
<polygon fill="none" stroke="#000000" points="633,-82.5 633,-105.5 689,-105.5 689,-82.5 633,-82.5"/>
<text text-anchor="start" x="656.5" y="-90.3" font-family="arial" font-size="14.00" fill="#000000">2</text>
<polygon fill="none" stroke="#000000" points="689,-82.5 689,-105.5 769,-105.5 769,-82.5 689,-82.5"/>
<text text-anchor="start" x="713.5" y="-90.3" font-family="arial" font-size="14.00" fill="#000000">VCC</text>
<polygon fill="none" stroke="#000000" points="769,-82.5 769,-105.5 825,-105.5 825,-82.5 769,-82.5"/>
<text text-anchor="start" x="792.5" y="-90.3" font-family="arial" font-size="14.00" fill="#000000">2</text>
<polygon fill="none" stroke="#000000" points="633,-59.5 633,-82.5 689,-82.5 689,-59.5 633,-59.5"/>
<text text-anchor="start" x="656.5" y="-67.3" font-family="arial" font-size="14.00" fill="#000000">3</text>
<polygon fill="none" stroke="#000000" points="689,-59.5 689,-82.5 769,-82.5 769,-59.5 689,-59.5"/>
<text text-anchor="start" x="714.5" y="-67.3" font-family="arial" font-size="14.00" fill="#000000">SCL</text>
<polygon fill="none" stroke="#000000" points="769,-59.5 769,-82.5 825,-82.5 825,-59.5 769,-59.5"/>
<text text-anchor="start" x="792.5" y="-67.3" font-family="arial" font-size="14.00" fill="#000000">3</text>
<polygon fill="none" stroke="#000000" points="633,-36.5 633,-59.5 689,-59.5 689,-36.5 633,-36.5"/>
<text text-anchor="start" x="656.5" y="-44.3" font-family="arial" font-size="14.00" fill="#000000">4</text>
<polygon fill="none" stroke="#000000" points="689,-36.5 689,-59.5 769,-59.5 769,-36.5 689,-36.5"/>
<text text-anchor="start" x="713.5" y="-44.3" font-family="arial" font-size="14.00" fill="#000000">SDA</text>
<polygon fill="none" stroke="#000000" points="769,-36.5 769,-59.5 825,-59.5 825,-36.5 769,-36.5"/>
<text text-anchor="start" x="792.5" y="-44.3" font-family="arial" font-size="14.00" fill="#000000">4</text>
<polygon fill="none" stroke="#000000" points="633,-13.5 633,-36.5 825,-36.5 825,-13.5 633,-13.5"/>
<text text-anchor="start" x="674.5" y="-21.3" font-family="arial" font-size="14.00" fill="#000000">to accelerometer</text>
</g>
<!-- W2 -->
<g id="node5" class="node">
<title>W2</title>
<polygon fill="none" stroke="#000000" points="1138,-207 969,-207 969,0 1138,0 1138,-207"/>
<polygon fill="none" stroke="#000000" points="969.5,-183.5 969.5,-206.5 1138.5,-206.5 1138.5,-183.5 969.5,-183.5"/>
<text text-anchor="start" x="1043" y="-191.3" font-family="arial" font-size="14.00" fill="#000000">W2</text>
<polygon fill="none" stroke="#000000" points="969.5,-160.5 969.5,-183.5 1006.5,-183.5 1006.5,-160.5 969.5,-160.5"/>
<text text-anchor="start" x="980" y="-168.3" font-family="arial" font-size="14.00" fill="#000000">4x</text>
<polygon fill="none" stroke="#000000" points="1006.5,-160.5 1006.5,-183.5 1081.5,-183.5 1081.5,-160.5 1006.5,-160.5"/>
<text text-anchor="start" x="1017" y="-168.3" font-family="arial" font-size="14.00" fill="#000000">24 AWG</text>
<polygon fill="none" stroke="#000000" points="1081.5,-160.5 1081.5,-183.5 1138.5,-183.5 1138.5,-160.5 1081.5,-160.5"/>
<text text-anchor="start" x="1091.5" y="-168.3" font-family="arial" font-size="14.00" fill="#000000">0.1 m</text>
<text text-anchor="start" x="997" y="-147.3" font-family="arial" font-size="14.00" fill="#000000"> </text>
<text text-anchor="start" x="983.5" y="-128.3" font-family="arial" font-size="14.00" fill="#000000">X2:1</text>
<text text-anchor="start" x="1043.5" y="-128.3" font-family="arial" font-size="14.00" fill="#000000">BN</text>
<text text-anchor="start" x="1093.5" y="-128.3" font-family="arial" font-size="14.00" fill="#000000">X3:1</text>
<polygon fill="#000000" stroke="transparent" points="969.5,-120.5 969.5,-122.5 1138.5,-122.5 1138.5,-120.5 969.5,-120.5"/>
<polygon fill="#895956" stroke="transparent" points="969.5,-118.5 969.5,-120.5 1138.5,-120.5 1138.5,-118.5 969.5,-118.5"/>
<polygon fill="#000000" stroke="transparent" points="969.5,-116.5 969.5,-118.5 1138.5,-118.5 1138.5,-116.5 969.5,-116.5"/>
<text text-anchor="start" x="983.5" y="-103.3" font-family="arial" font-size="14.00" fill="#000000">X2:2</text>
<text text-anchor="start" x="1043" y="-103.3" font-family="arial" font-size="14.00" fill="#000000">RD</text>
<text text-anchor="start" x="1093.5" y="-103.3" font-family="arial" font-size="14.00" fill="#000000">X3:2</text>
<polygon fill="#000000" stroke="transparent" points="969.5,-95.5 969.5,-97.5 1138.5,-97.5 1138.5,-95.5 969.5,-95.5"/>
<polygon fill="#ff0000" stroke="transparent" points="969.5,-93.5 969.5,-95.5 1138.5,-95.5 1138.5,-93.5 969.5,-93.5"/>
<polygon fill="#000000" stroke="transparent" points="969.5,-91.5 969.5,-93.5 1138.5,-93.5 1138.5,-91.5 969.5,-91.5"/>
<text text-anchor="start" x="983.5" y="-78.3" font-family="arial" font-size="14.00" fill="#000000">X2:3</text>
<text text-anchor="start" x="1042.5" y="-78.3" font-family="arial" font-size="14.00" fill="#000000">OG</text>
<text text-anchor="start" x="1093.5" y="-78.3" font-family="arial" font-size="14.00" fill="#000000">X3:3</text>
<polygon fill="#000000" stroke="transparent" points="969.5,-70.5 969.5,-72.5 1138.5,-72.5 1138.5,-70.5 969.5,-70.5"/>
<polygon fill="#ff8000" stroke="transparent" points="969.5,-68.5 969.5,-70.5 1138.5,-70.5 1138.5,-68.5 969.5,-68.5"/>
<polygon fill="#000000" stroke="transparent" points="969.5,-66.5 969.5,-68.5 1138.5,-68.5 1138.5,-66.5 969.5,-66.5"/>
<text text-anchor="start" x="983.5" y="-53.3" font-family="arial" font-size="14.00" fill="#000000">X2:4</text>
<text text-anchor="start" x="1044" y="-53.3" font-family="arial" font-size="14.00" fill="#000000">YE</text>
<text text-anchor="start" x="1093.5" y="-53.3" font-family="arial" font-size="14.00" fill="#000000">X3:4</text>
<polygon fill="#000000" stroke="transparent" points="969.5,-45.5 969.5,-47.5 1138.5,-47.5 1138.5,-45.5 969.5,-45.5"/>
<polygon fill="#ffff00" stroke="transparent" points="969.5,-43.5 969.5,-45.5 1138.5,-45.5 1138.5,-43.5 969.5,-43.5"/>
<polygon fill="#000000" stroke="transparent" points="969.5,-41.5 969.5,-43.5 1138.5,-43.5 1138.5,-41.5 969.5,-41.5"/>
<text text-anchor="start" x="997" y="-28.3" font-family="arial" font-size="14.00" fill="#000000"> </text>
<polygon fill="none" stroke="#000000" points="969.5,.5 969.5,-22.5 1138.5,-22.5 1138.5,.5 969.5,.5"/>
<text text-anchor="start" x="973.5" y="-7.3" font-family="arial" font-size="14.00" fill="#000000">This cable is a bit shorter</text>
</g>
<!-- X2&#45;&#45;W2 -->
<g id="edge9" class="edge">
<title>X2:e&#45;&#45;W2:w</title>
<path fill="none" stroke="#000000" stroke-width="2" d="M825,-115.5C889.4758,-115.5154 905.519,-117.5154 969.5,-117.5"/>
<path fill="none" stroke="#895956" stroke-width="2" d="M825,-117.5C889.2284,-117.5 905.2716,-119.5 969.5,-119.5"/>
<path fill="none" stroke="#000000" stroke-width="2" d="M825,-119.5C888.981,-119.4846 905.0242,-121.4846 969.5,-121.5"/>
</g>
<!-- X2&#45;&#45;W2 -->
<g id="edge11" class="edge">
<title>X2:e&#45;&#45;W2:w</title>
<path fill="none" stroke="#000000" stroke-width="2" d="M825,-91.5C889.3481,-91.5039 905.4006,-92.5039 969.5,-92.5"/>
<path fill="none" stroke="#ff0000" stroke-width="2" d="M825,-93.5C889.2238,-93.5 905.2762,-94.5 969.5,-94.5"/>
<path fill="none" stroke="#000000" stroke-width="2" d="M825,-95.5C889.0994,-95.4961 905.1519,-96.4961 969.5,-96.5"/>
</g>
<!-- X2&#45;&#45;W2 -->
<g id="edge13" class="edge">
<title>X2:e&#45;&#45;W2:w</title>
<path fill="none" stroke="#000000" stroke-width="2" d="M825,-68.5C889.0994,-68.5039 905.1519,-67.5039 969.5,-67.5"/>
<path fill="none" stroke="#ff8000" stroke-width="2" d="M825,-70.5C889.2238,-70.5 905.2762,-69.5 969.5,-69.5"/>
<path fill="none" stroke="#000000" stroke-width="2" d="M825,-72.5C889.3481,-72.4961 905.4006,-71.4961 969.5,-71.5"/>
</g>
<!-- X2&#45;&#45;W2 -->
<g id="edge15" class="edge">
<title>X2:e&#45;&#45;W2:w</title>
<path fill="none" stroke="#000000" stroke-width="2" d="M825,-45.5C888.8681,-45.5341 904.896,-42.5341 969.5,-42.5"/>
<path fill="none" stroke="#ffff00" stroke-width="2" d="M825,-47.5C889.2361,-47.5 905.2639,-44.5 969.5,-44.5"/>
<path fill="none" stroke="#000000" stroke-width="2" d="M825,-49.5C889.604,-49.4659 905.6319,-46.4659 969.5,-46.5"/>
</g>
<!-- X3 -->
<g id="node3" class="node">
<title>X3</title>
<polygon fill="#ffffff" stroke="transparent" points="1474,-175 1282,-175 1282,-14 1474,-14 1474,-175"/>
<polygon fill="none" stroke="#000000" points="1282,-151.5 1282,-174.5 1474,-174.5 1474,-151.5 1282,-151.5"/>
<text text-anchor="start" x="1368.5" y="-159.3" font-family="arial" font-size="14.00" fill="#000000">X3</text>
<polygon fill="none" stroke="#000000" points="1282,-128.5 1282,-151.5 1381,-151.5 1381,-128.5 1282,-128.5"/>
<text text-anchor="start" x="1286" y="-136.3" font-family="arial" font-size="14.00" fill="#000000">Molex KK 254</text>
<polygon fill="none" stroke="#000000" points="1381,-128.5 1381,-151.5 1433,-151.5 1433,-128.5 1381,-128.5"/>
<text text-anchor="start" x="1385" y="-136.3" font-family="arial" font-size="14.00" fill="#000000">female</text>
<polygon fill="none" stroke="#000000" points="1433,-128.5 1433,-151.5 1474,-151.5 1474,-128.5 1433,-128.5"/>
<text text-anchor="start" x="1437" y="-136.3" font-family="arial" font-size="14.00" fill="#000000">4&#45;pin</text>
<polygon fill="none" stroke="#000000" points="1282,-105.5 1282,-128.5 1366,-128.5 1366,-105.5 1282,-105.5"/>
<text text-anchor="start" x="1319.5" y="-113.3" font-family="arial" font-size="14.00" fill="#000000">1</text>
<polygon fill="none" stroke="#000000" points="1366,-105.5 1366,-128.5 1474,-128.5 1474,-105.5 1366,-105.5"/>
<text text-anchor="start" x="1403.5" y="-113.3" font-family="arial" font-size="14.00" fill="#000000">GND</text>
<polygon fill="none" stroke="#000000" points="1282,-82.5 1282,-105.5 1366,-105.5 1366,-82.5 1282,-82.5"/>
<text text-anchor="start" x="1319.5" y="-90.3" font-family="arial" font-size="14.00" fill="#000000">2</text>
<polygon fill="none" stroke="#000000" points="1366,-82.5 1366,-105.5 1474,-105.5 1474,-82.5 1366,-82.5"/>
<text text-anchor="start" x="1404.5" y="-90.3" font-family="arial" font-size="14.00" fill="#000000">VCC</text>
<polygon fill="none" stroke="#000000" points="1282,-59.5 1282,-82.5 1366,-82.5 1366,-59.5 1282,-59.5"/>
<text text-anchor="start" x="1319.5" y="-67.3" font-family="arial" font-size="14.00" fill="#000000">3</text>
<polygon fill="none" stroke="#000000" points="1366,-59.5 1366,-82.5 1474,-82.5 1474,-59.5 1366,-59.5"/>
<text text-anchor="start" x="1405.5" y="-67.3" font-family="arial" font-size="14.00" fill="#000000">SCL</text>
<polygon fill="none" stroke="#000000" points="1282,-36.5 1282,-59.5 1366,-59.5 1366,-36.5 1282,-36.5"/>
<text text-anchor="start" x="1319.5" y="-44.3" font-family="arial" font-size="14.00" fill="#000000">4</text>
<polygon fill="none" stroke="#000000" points="1366,-36.5 1366,-59.5 1474,-59.5 1474,-36.5 1366,-36.5"/>
<text text-anchor="start" x="1404.5" y="-44.3" font-family="arial" font-size="14.00" fill="#000000">SDA</text>
<polygon fill="none" stroke="#000000" points="1282,-13.5 1282,-36.5 1474,-36.5 1474,-13.5 1282,-13.5"/>
<text text-anchor="start" x="1307" y="-21.3" font-family="arial" font-size="14.00" fill="#000000">to temperature sensor</text>
</g>
<!-- W1&#45;&#45;X2 -->
<g id="edge2" class="edge">
<title>W1:e&#45;&#45;X2:w</title>
<path fill="none" stroke="#000000" stroke-width="2" d="M489,-117.5C552.7579,-117.5155 568.7456,-115.5155 633,-115.5"/>
<path fill="none" stroke="#895956" stroke-width="2" d="M489,-119.5C553.0062,-119.5 568.9938,-117.5 633,-117.5"/>
<path fill="none" stroke="#000000" stroke-width="2" d="M489,-121.5C553.2544,-121.4845 569.2421,-119.4845 633,-119.5"/>
</g>
<!-- W1&#45;&#45;X2 -->
<g id="edge4" class="edge">
<title>W1:e&#45;&#45;X2:w</title>
<path fill="none" stroke="#000000" stroke-width="2" d="M489,-92.5C552.8768,-92.5039 568.8737,-91.5039 633,-91.5"/>
<path fill="none" stroke="#ff0000" stroke-width="2" d="M489,-94.5C553.0015,-94.5 568.9985,-93.5 633,-93.5"/>
<path fill="none" stroke="#000000" stroke-width="2" d="M489,-96.5C553.1263,-96.4961 569.1232,-95.4961 633,-95.5"/>
</g>
<!-- W1&#45;&#45;X2 -->
<g id="edge6" class="edge">
<title>W1:e&#45;&#45;X2:w</title>
<path fill="none" stroke="#000000" stroke-width="2" d="M489,-67.5C553.1263,-67.5039 569.1232,-68.5039 633,-68.5"/>
<path fill="none" stroke="#ff8000" stroke-width="2" d="M489,-69.5C553.0015,-69.5 568.9985,-70.5 633,-70.5"/>
<path fill="none" stroke="#000000" stroke-width="2" d="M489,-71.5C552.8768,-71.4961 568.8737,-72.4961 633,-72.5"/>
</g>
<!-- W1&#45;&#45;X2 -->
<g id="edge8" class="edge">
<title>W1:e&#45;&#45;X2:w</title>
<path fill="none" stroke="#000000" stroke-width="2" d="M489,-42.5C553.3831,-42.5344 569.3553,-45.5344 633,-45.5"/>
<path fill="none" stroke="#ffff00" stroke-width="2" d="M489,-44.5C553.0139,-44.5 568.9861,-47.5 633,-47.5"/>
<path fill="none" stroke="#000000" stroke-width="2" d="M489,-46.5C552.6447,-46.4656 568.6169,-49.4656 633,-49.5"/>
</g>
<!-- W2&#45;&#45;X3 -->
<g id="edge10" class="edge">
<title>W2:e&#45;&#45;X3:w</title>
<path fill="none" stroke="#000000" stroke-width="2" d="M1138,-117.5C1201.7579,-117.5155 1217.7456,-115.5155 1282,-115.5"/>
<path fill="none" stroke="#895956" stroke-width="2" d="M1138,-119.5C1202.0062,-119.5 1217.9938,-117.5 1282,-117.5"/>
<path fill="none" stroke="#000000" stroke-width="2" d="M1138,-121.5C1202.2544,-121.4845 1218.2421,-119.4845 1282,-119.5"/>
</g>
<!-- W2&#45;&#45;X3 -->
<g id="edge12" class="edge">
<title>W2:e&#45;&#45;X3:w</title>
<path fill="none" stroke="#000000" stroke-width="2" d="M1138,-92.5C1201.8768,-92.5039 1217.8737,-91.5039 1282,-91.5"/>
<path fill="none" stroke="#ff0000" stroke-width="2" d="M1138,-94.5C1202.0015,-94.5 1217.9985,-93.5 1282,-93.5"/>
<path fill="none" stroke="#000000" stroke-width="2" d="M1138,-96.5C1202.1263,-96.4961 1218.1232,-95.4961 1282,-95.5"/>
</g>
<!-- W2&#45;&#45;X3 -->
<g id="edge14" class="edge">
<title>W2:e&#45;&#45;X3:w</title>
<path fill="none" stroke="#000000" stroke-width="2" d="M1138,-67.5C1202.1263,-67.5039 1218.1232,-68.5039 1282,-68.5"/>
<path fill="none" stroke="#ff8000" stroke-width="2" d="M1138,-69.5C1202.0015,-69.5 1217.9985,-70.5 1282,-70.5"/>
<path fill="none" stroke="#000000" stroke-width="2" d="M1138,-71.5C1201.8768,-71.4961 1217.8737,-72.4961 1282,-72.5"/>
</g>
<!-- W2&#45;&#45;X3 -->
<g id="edge16" class="edge">
<title>W2:e&#45;&#45;X3:w</title>
<path fill="none" stroke="#000000" stroke-width="2" d="M1138,-42.5C1202.3831,-42.5344 1218.3553,-45.5344 1282,-45.5"/>
<path fill="none" stroke="#ffff00" stroke-width="2" d="M1138,-44.5C1202.0139,-44.5 1217.9861,-47.5 1282,-47.5"/>
<path fill="none" stroke="#000000" stroke-width="2" d="M1138,-46.5C1201.6447,-46.4656 1217.6169,-49.4656 1282,-49.5"/>
</g>
</g>
</svg>
