<?xml version="1.0" encoding="UTF-8" standalone="no"?>
<!DOCTYPE svg PUBLIC "-//W3C//DTD SVG 1.1//EN"
 "http://www.w3.org/Graphics/SVG/1.1/DTD/svg11.dtd">
<!-- Generated by graphviz version 2.40.1 (20161225.0304)
 -->
<!-- Title: %3 Pages: 1 -->
<svg width="478pt" height="192pt"
 viewBox="0.00 0.00 478.00 192.00" xmlns="http://www.w3.org/2000/svg" xmlns:xlink="http://www.w3.org/1999/xlink">
<g id="graph0" class="graph" transform="scale(1 1) rotate(0) translate(4 188)">
<title>%3</title>
<polygon fill="#ffffff" stroke="transparent" points="-4,4 -4,-188 474,-188 474,4 -4,4"/>
<!-- X1 -->
<g id="node1" class="node">
<title>X1</title>
<polygon fill="#ffffff" stroke="transparent" points="54,-152 0,-152 0,-14 54,-14 54,-152"/>
<polygon fill="none" stroke="#000000" points="7,-129 7,-152 48,-152 48,-129 7,-129"/>
<text text-anchor="start" x="18" y="-136.8" font-family="arial" font-size="14.00" fill="#000000">X1</text>
<polygon fill="none" stroke="#000000" points="7,-106 7,-129 48,-129 48,-106 7,-106"/>
<text text-anchor="start" x="11" y="-113.8" font-family="arial" font-size="14.00" fill="#000000">4&#45;pin</text>
<polygon fill="none" stroke="#000000" points="7,-83 7,-106 48,-106 48,-83 7,-83"/>
<text text-anchor="start" x="23" y="-90.8" font-family="arial" font-size="14.00" fill="#000000">1</text>
<polygon fill="none" stroke="#000000" points="7,-60 7,-83 48,-83 48,-60 7,-60"/>
<text text-anchor="start" x="23" y="-67.8" font-family="arial" font-size="14.00" fill="#000000">2</text>
<polygon fill="none" stroke="#000000" points="7,-37 7,-60 48,-60 48,-37 7,-37"/>
<text text-anchor="start" x="23" y="-44.8" font-family="arial" font-size="14.00" fill="#000000">3</text>
<polygon fill="none" stroke="#000000" points="7,-14 7,-37 48,-37 48,-14 7,-14"/>
<text text-anchor="start" x="23" y="-21.8" font-family="arial" font-size="14.00" fill="#000000">4</text>
</g>
<!-- W1 -->
<g id="node3" class="node">
<title>W1</title>
<polygon fill="none" stroke="#000000" points="272,-184 198,-184 198,0 272,0 272,-184"/>
<polygon fill="none" stroke="#000000" points="198,-161 198,-184 272,-184 272,-161 198,-161"/>
<text text-anchor="start" x="224" y="-168.8" font-family="arial" font-size="14.00" fill="#000000">W1</text>
<polygon fill="none" stroke="#000000" points="198,-138 198,-161 231,-161 231,-138 198,-138"/>
<text text-anchor="start" x="206.5" y="-145.8" font-family="arial" font-size="14.00" fill="#000000">4x</text>
<polygon fill="none" stroke="#000000" points="231,-138 231,-161 272,-161 272,-138 231,-138"/>
<text text-anchor="start" x="239" y="-145.8" font-family="arial" font-size="14.00" fill="#000000">1 m</text>
<text text-anchor="start" x="213.5" y="-124.8" font-family="arial" font-size="14.00" fill="#000000"> </text>
<text text-anchor="start" x="200" y="-105.8" font-family="arial" font-size="14.00" fill="#000000">X1:1</text>
<text text-anchor="start" x="239" y="-105.8" font-family="arial" font-size="14.00" fill="#000000">X2:1</text>
<polygon fill="#000000" stroke="transparent" points="198,-98 198,-100 272,-100 272,-98 198,-98"/>
<polygon fill="#ffffff" stroke="transparent" points="198,-96 198,-98 272,-98 272,-96 198,-96"/>
<polygon fill="#000000" stroke="transparent" points="198,-94 198,-96 272,-96 272,-94 198,-94"/>
<text text-anchor="start" x="200" y="-80.8" font-family="arial" font-size="14.00" fill="#000000">X1:2</text>
<text text-anchor="start" x="239" y="-80.8" font-family="arial" font-size="14.00" fill="#000000">X2:2</text>
<polygon fill="#000000" stroke="transparent" points="198,-73 198,-75 272,-75 272,-73 198,-73"/>
<polygon fill="#ffffff" stroke="transparent" points="198,-71 198,-73 272,-73 272,-71 198,-71"/>
<polygon fill="#000000" stroke="transparent" points="198,-69 198,-71 272,-71 272,-69 198,-69"/>
<text text-anchor="start" x="200" y="-55.8" font-family="arial" font-size="14.00" fill="#000000">X1:3</text>
<text text-anchor="start" x="239" y="-55.8" font-family="arial" font-size="14.00" fill="#000000">X2:3</text>
<polygon fill="#000000" stroke="transparent" points="198,-48 198,-50 272,-50 272,-48 198,-48"/>
<polygon fill="#ffffff" stroke="transparent" points="198,-46 198,-48 272,-48 272,-46 198,-46"/>
<polygon fill="#000000" stroke="transparent" points="198,-44 198,-46 272,-46 272,-44 198,-44"/>
<text text-anchor="start" x="200" y="-30.8" font-family="arial" font-size="14.00" fill="#000000">X1:4</text>
<text text-anchor="start" x="239" y="-30.8" font-family="arial" font-size="14.00" fill="#000000">X2:4</text>
<polygon fill="#000000" stroke="transparent" points="198,-23 198,-25 272,-25 272,-23 198,-23"/>
<polygon fill="#ffffff" stroke="transparent" points="198,-21 198,-23 272,-23 272,-21 198,-21"/>
<polygon fill="#000000" stroke="transparent" points="198,-19 198,-21 272,-21 272,-19 198,-19"/>
<text text-anchor="start" x="213.5" y="-5.8" font-family="arial" font-size="14.00" fill="#000000"> </text>
</g>
<!-- X1&#45;&#45;W1 -->
<g id="edge1" class="edge">
<title>X1:e&#45;&#45;W1:w</title>
<path fill="none" stroke="#000000" stroke-width="2" d="M48,-93C114.911,-93.0143 131.5659,-95.0143 198,-95"/>
<path fill="none" stroke="#ffffff" stroke-width="2" d="M48,-95C114.6726,-95 131.3274,-97 198,-97"/>
<path fill="none" stroke="#000000" stroke-width="2" d="M48,-97C114.4341,-96.9857 131.089,-98.9857 198,-99"/>
</g>
<!-- X1&#45;&#45;W1 -->
<g id="edge3" class="edge">
<title>X1:e&#45;&#45;W1:w</title>
<path fill="none" stroke="#000000" stroke-width="2" d="M48,-69C114.788,-69.0036 131.4517,-70.0036 198,-70"/>
<path fill="none" stroke="#ffffff" stroke-width="2" d="M48,-71C114.6681,-71 131.3319,-72 198,-72"/>
<path fill="none" stroke="#000000" stroke-width="2" d="M48,-73C114.5483,-72.9964 131.212,-73.9964 198,-74"/>
</g>
<!-- X1&#45;&#45;W1 -->
<g id="edge5" class="edge">
<title>X1:e&#45;&#45;W1:w</title>
<path fill="none" stroke="#000000" stroke-width="2" d="M48,-46C114.5483,-46.0036 131.212,-45.0036 198,-45"/>
<path fill="none" stroke="#ffffff" stroke-width="2" d="M48,-48C114.6681,-48 131.3319,-47 198,-47"/>
<path fill="none" stroke="#000000" stroke-width="2" d="M48,-50C114.788,-49.9964 131.4517,-48.9964 198,-49"/>
</g>
<!-- X1&#45;&#45;W1 -->
<g id="edge7" class="edge">
<title>X1:e&#45;&#45;W1:w</title>
<path fill="none" stroke="#000000" stroke-width="2" d="M48,-23C114.3251,-23.0317 130.9651,-20.0317 198,-20"/>
<path fill="none" stroke="#ffffff" stroke-width="2" d="M48,-25C114.68,-25 131.32,-22 198,-22"/>
<path fill="none" stroke="#000000" stroke-width="2" d="M48,-27C115.0349,-26.9683 131.6749,-23.9683 198,-24"/>
</g>
<!-- X2 -->
<g id="node2" class="node">
<title>X2</title>
<polygon fill="#ffffff" stroke="transparent" points="470,-152 416,-152 416,-14 470,-14 470,-152"/>
<polygon fill="none" stroke="#000000" points="423,-129 423,-152 464,-152 464,-129 423,-129"/>
<text text-anchor="start" x="434" y="-136.8" font-family="arial" font-size="14.00" fill="#000000">X2</text>
<polygon fill="none" stroke="#000000" points="423,-106 423,-129 464,-129 464,-106 423,-106"/>
<text text-anchor="start" x="427" y="-113.8" font-family="arial" font-size="14.00" fill="#000000">4&#45;pin</text>
<polygon fill="none" stroke="#000000" points="423,-83 423,-106 464,-106 464,-83 423,-83"/>
<text text-anchor="start" x="439" y="-90.8" font-family="arial" font-size="14.00" fill="#000000">1</text>
<polygon fill="none" stroke="#000000" points="423,-60 423,-83 464,-83 464,-60 423,-60"/>
<text text-anchor="start" x="439" y="-67.8" font-family="arial" font-size="14.00" fill="#000000">2</text>
<polygon fill="none" stroke="#000000" points="423,-37 423,-60 464,-60 464,-37 423,-37"/>
<text text-anchor="start" x="439" y="-44.8" font-family="arial" font-size="14.00" fill="#000000">3</text>
<polygon fill="none" stroke="#000000" points="423,-14 423,-37 464,-37 464,-14 423,-14"/>
<text text-anchor="start" x="439" y="-21.8" font-family="arial" font-size="14.00" fill="#000000">4</text>
</g>
<!-- W1&#45;&#45;X2 -->
<g id="edge2" class="edge">
<title>W1:e&#45;&#45;X2:w</title>
<path fill="none" stroke="#000000" stroke-width="2" d="M272,-95C338.8801,-95.0141 355.6461,-93.0141 423,-93"/>
<path fill="none" stroke="#ffffff" stroke-width="2" d="M272,-97C339.117,-97 355.883,-95 423,-95"/>
<path fill="none" stroke="#000000" stroke-width="2" d="M272,-99C339.3539,-98.9859 356.1199,-96.9859 423,-97"/>
</g>
<!-- W1&#45;&#45;X2 -->
<g id="edge4" class="edge">
<title>W1:e&#45;&#45;X2:w</title>
<path fill="none" stroke="#000000" stroke-width="2" d="M272,-70C338.9936,-70.0035 355.7684,-69.0035 423,-69"/>
<path fill="none" stroke="#ffffff" stroke-width="2" d="M272,-72C339.1126,-72 355.8874,-71 423,-71"/>
<path fill="none" stroke="#000000" stroke-width="2" d="M272,-74C339.2316,-73.9965 356.0064,-72.9965 423,-73"/>
</g>
<!-- W1&#45;&#45;X2 -->
<g id="edge6" class="edge">
<title>W1:e&#45;&#45;X2:w</title>
<path fill="none" stroke="#000000" stroke-width="2" d="M272,-45C339.2316,-45.0035 356.0064,-46.0035 423,-46"/>
<path fill="none" stroke="#ffffff" stroke-width="2" d="M272,-47C339.1126,-47 355.8874,-48 423,-48"/>
<path fill="none" stroke="#000000" stroke-width="2" d="M272,-49C338.9936,-48.9965 355.7684,-49.9965 423,-50"/>
</g>
<!-- W1&#45;&#45;X2 -->
<g id="edge8" class="edge">
<title>W1:e&#45;&#45;X2:w</title>
<path fill="none" stroke="#000000" stroke-width="2" d="M272,-20C339.4769,-20.0313 356.2282,-23.0313 423,-23"/>
<path fill="none" stroke="#ffffff" stroke-width="2" d="M272,-22C339.1244,-22 355.8756,-25 423,-25"/>
<path fill="none" stroke="#000000" stroke-width="2" d="M272,-24C338.7718,-23.9687 355.5231,-26.9687 423,-27"/>
</g>
</g>
</svg>
