<?xml version="1.0" encoding="UTF-8" standalone="no"?>
<!DOCTYPE svg PUBLIC "-//W3C//DTD SVG 1.1//EN"
 "http://www.w3.org/Graphics/SVG/1.1/DTD/svg11.dtd">
<!-- Generated by graphviz version 2.40.1 (20161225.0304)
 -->
<!-- Title: %3 Pages: 1 -->
<svg width="888pt" height="779pt"
 viewBox="0.00 0.00 888.00 779.00" xmlns="http://www.w3.org/2000/svg" xmlns:xlink="http://www.w3.org/1999/xlink">
<g id="graph0" class="graph" transform="scale(1 1) rotate(0) translate(4 775)">
<title>%3</title>
<polygon fill="#ffffff" stroke="transparent" points="-4,4 -4,-775 884,-775 884,4 -4,4"/>
<!-- X1 -->
<g id="node1" class="node">
<title>X1</title>
<polygon fill="#ffffff" stroke="transparent" points="194,-530 2,-530 2,-300 194,-300 194,-530"/>
<polygon fill="none" stroke="#000000" points="2,-507 2,-530 194,-530 194,-507 2,-507"/>
<text text-anchor="start" x="88.5" y="-514.8" font-family="arial" font-size="14.00" fill="#000000">X1</text>
<polygon fill="none" stroke="#000000" points="2,-484 2,-507 101,-507 101,-484 2,-484"/>
<text text-anchor="start" x="6" y="-491.8" font-family="arial" font-size="14.00" fill="#000000">Molex KK 254</text>
<polygon fill="none" stroke="#000000" points="101,-484 101,-507 153,-507 153,-484 101,-484"/>
<text text-anchor="start" x="105" y="-491.8" font-family="arial" font-size="14.00" fill="#000000">female</text>
<polygon fill="none" stroke="#000000" points="153,-484 153,-507 194,-507 194,-484 153,-484"/>
<text text-anchor="start" x="157" y="-491.8" font-family="arial" font-size="14.00" fill="#000000">8&#45;pin</text>
<polygon fill="none" stroke="#000000" points="2,-461 2,-484 112,-484 112,-461 2,-461"/>
<text text-anchor="start" x="40.5" y="-468.8" font-family="arial" font-size="14.00" fill="#000000">GND</text>
<polygon fill="none" stroke="#000000" points="112,-461 112,-484 194,-484 194,-461 112,-461"/>
<text text-anchor="start" x="148.5" y="-468.8" font-family="arial" font-size="14.00" fill="#000000">1</text>
<polygon fill="none" stroke="#000000" points="2,-438 2,-461 112,-461 112,-438 2,-438"/>
<text text-anchor="start" x="43.5" y="-445.8" font-family="arial" font-size="14.00" fill="#000000">+5V</text>
<polygon fill="none" stroke="#000000" points="112,-438 112,-461 194,-461 194,-438 112,-438"/>
<text text-anchor="start" x="148.5" y="-445.8" font-family="arial" font-size="14.00" fill="#000000">2</text>
<polygon fill="none" stroke="#000000" points="2,-415 2,-438 112,-438 112,-415 2,-415"/>
<text text-anchor="start" x="42.5" y="-422.8" font-family="arial" font-size="14.00" fill="#000000">SCL</text>
<polygon fill="none" stroke="#000000" points="112,-415 112,-438 194,-438 194,-415 112,-415"/>
<text text-anchor="start" x="148.5" y="-422.8" font-family="arial" font-size="14.00" fill="#000000">3</text>
<polygon fill="none" stroke="#000000" points="2,-392 2,-415 112,-415 112,-392 2,-392"/>
<text text-anchor="start" x="41.5" y="-399.8" font-family="arial" font-size="14.00" fill="#000000">SDA</text>
<polygon fill="none" stroke="#000000" points="112,-392 112,-415 194,-415 194,-392 112,-392"/>
<text text-anchor="start" x="148.5" y="-399.8" font-family="arial" font-size="14.00" fill="#000000">4</text>
<polygon fill="none" stroke="#000000" points="2,-369 2,-392 112,-392 112,-369 2,-369"/>
<text text-anchor="start" x="38.5" y="-376.8" font-family="arial" font-size="14.00" fill="#000000">MISO</text>
<polygon fill="none" stroke="#000000" points="112,-369 112,-392 194,-392 194,-369 112,-369"/>
<text text-anchor="start" x="148.5" y="-376.8" font-family="arial" font-size="14.00" fill="#000000">5</text>
<polygon fill="none" stroke="#000000" points="2,-346 2,-369 112,-369 112,-346 2,-346"/>
<text text-anchor="start" x="38.5" y="-353.8" font-family="arial" font-size="14.00" fill="#000000">MOSI</text>
<polygon fill="none" stroke="#000000" points="112,-346 112,-369 194,-369 194,-346 112,-346"/>
<text text-anchor="start" x="148.5" y="-353.8" font-family="arial" font-size="14.00" fill="#000000">6</text>
<polygon fill="none" stroke="#000000" points="2,-323 2,-346 112,-346 112,-323 2,-323"/>
<text text-anchor="start" x="41.5" y="-330.8" font-family="arial" font-size="14.00" fill="#000000">SCK</text>
<polygon fill="none" stroke="#000000" points="112,-323 112,-346 194,-346 194,-323 112,-323"/>
<text text-anchor="start" x="148.5" y="-330.8" font-family="arial" font-size="14.00" fill="#000000">7</text>
<polygon fill="none" stroke="#000000" points="2,-300 2,-323 112,-323 112,-300 2,-300"/>
<text text-anchor="start" x="44.5" y="-307.8" font-family="arial" font-size="14.00" fill="#000000">N/C</text>
<polygon fill="none" stroke="#000000" points="112,-300 112,-323 194,-323 194,-300 112,-300"/>
<text text-anchor="start" x="148.5" y="-307.8" font-family="arial" font-size="14.00" fill="#000000">8</text>
</g>
<!-- W1 -->
<g id="node7" class="node">
<title>W1</title>
<polygon fill="#ffffff" stroke="#000000" stroke-dasharray="5,2" points="544,-771 340,-771 340,-587 544,-587 544,-771"/>
<polygon fill="none" stroke="#000000" points="340,-748 340,-771 544,-771 544,-748 340,-748"/>
<text text-anchor="start" x="431" y="-755.8" font-family="arial" font-size="14.00" fill="#000000">W1</text>
<polygon fill="none" stroke="#000000" points="340,-725 340,-748 364,-748 364,-725 340,-725"/>
<text text-anchor="start" x="344" y="-732.8" font-family="arial" font-size="14.00" fill="#000000">4x</text>
<polygon fill="none" stroke="#000000" points="364,-725 364,-748 499,-748 499,-725 364,-725"/>
<text text-anchor="start" x="368" y="-732.8" font-family="arial" font-size="14.00" fill="#000000">0.14 mm² (26 AWG)</text>
<polygon fill="none" stroke="#000000" points="499,-725 499,-748 544,-748 544,-725 499,-725"/>
<text text-anchor="start" x="503" y="-732.8" font-family="arial" font-size="14.00" fill="#000000">0.2 m</text>
<text text-anchor="start" x="373.5" y="-711.8" font-family="arial" font-size="14.00" fill="#000000"> </text>
<text text-anchor="start" x="360" y="-692.8" font-family="arial" font-size="14.00" fill="#000000">X1:1</text>
<text text-anchor="start" x="432" y="-692.8" font-family="arial" font-size="14.00" fill="#000000">BK</text>
<text text-anchor="start" x="493" y="-692.8" font-family="arial" font-size="14.00" fill="#000000">X2:1</text>
<polygon fill="#000000" stroke="transparent" points="340,-685 340,-687 544,-687 544,-685 340,-685"/>
<polygon fill="#000000" stroke="transparent" points="340,-683 340,-685 544,-685 544,-683 340,-683"/>
<polygon fill="#000000" stroke="transparent" points="340,-681 340,-683 544,-683 544,-681 340,-681"/>
<text text-anchor="start" x="360" y="-667.8" font-family="arial" font-size="14.00" fill="#000000">X1:2</text>
<text text-anchor="start" x="431" y="-667.8" font-family="arial" font-size="14.00" fill="#000000">RD</text>
<text text-anchor="start" x="493" y="-667.8" font-family="arial" font-size="14.00" fill="#000000">X2:2</text>
<polygon fill="#000000" stroke="transparent" points="340,-660 340,-662 544,-662 544,-660 340,-660"/>
<polygon fill="#ff0000" stroke="transparent" points="340,-658 340,-660 544,-660 544,-658 340,-658"/>
<polygon fill="#000000" stroke="transparent" points="340,-656 340,-658 544,-658 544,-656 340,-656"/>
<text text-anchor="start" x="360" y="-642.8" font-family="arial" font-size="14.00" fill="#000000">X1:3</text>
<text text-anchor="start" x="432" y="-642.8" font-family="arial" font-size="14.00" fill="#000000">YE</text>
<text text-anchor="start" x="493" y="-642.8" font-family="arial" font-size="14.00" fill="#000000">X2:3</text>
<polygon fill="#000000" stroke="transparent" points="340,-635 340,-637 544,-637 544,-635 340,-635"/>
<polygon fill="#ffff00" stroke="transparent" points="340,-633 340,-635 544,-635 544,-633 340,-633"/>
<polygon fill="#000000" stroke="transparent" points="340,-631 340,-633 544,-633 544,-631 340,-631"/>
<text text-anchor="start" x="360" y="-617.8" font-family="arial" font-size="14.00" fill="#000000">X1:4</text>
<text text-anchor="start" x="431" y="-617.8" font-family="arial" font-size="14.00" fill="#000000">GN</text>
<text text-anchor="start" x="493" y="-617.8" font-family="arial" font-size="14.00" fill="#000000">X2:4</text>
<polygon fill="#000000" stroke="transparent" points="340,-610 340,-612 544,-612 544,-610 340,-610"/>
<polygon fill="#00ff00" stroke="transparent" points="340,-608 340,-610 544,-610 544,-608 340,-608"/>
<polygon fill="#000000" stroke="transparent" points="340,-606 340,-608 544,-608 544,-606 340,-606"/>
<text text-anchor="start" x="373.5" y="-592.8" font-family="arial" font-size="14.00" fill="#000000"> </text>
</g>
<!-- X1&#45;&#45;W1 -->
<g id="edge1" class="edge">
<title>X1:e&#45;&#45;W1:w</title>
<path fill="none" stroke="#000000" stroke-width="2" d="M194,-471C309.9027,-473.7251 227.8252,-684.7251 340,-682"/>
<path fill="none" stroke="#000000" stroke-width="2" d="M194,-473C308.0388,-473 225.9612,-684 340,-684"/>
<path fill="none" stroke="#000000" stroke-width="2" d="M194,-475C306.1748,-472.2749 224.0973,-683.2749 340,-686"/>
</g>
<!-- X1&#45;&#45;W1 -->
<g id="edge3" class="edge">
<title>X1:e&#45;&#45;W1:w</title>
<path fill="none" stroke="#000000" stroke-width="2" d="M194,-448C309.1749,-450.7198 228.5571,-659.7198 340,-657"/>
<path fill="none" stroke="#ff0000" stroke-width="2" d="M194,-450C307.3089,-450 226.6911,-659 340,-659"/>
<path fill="none" stroke="#000000" stroke-width="2" d="M194,-452C305.4429,-449.2802 224.8251,-658.2802 340,-661"/>
</g>
<!-- X1&#45;&#45;W1 -->
<g id="edge5" class="edge">
<title>X1:e&#45;&#45;W1:w</title>
<path fill="none" stroke="#000000" stroke-width="2" d="M194,-425C308.4494,-427.7144 229.2867,-634.7144 340,-632"/>
<path fill="none" stroke="#ffff00" stroke-width="2" d="M194,-427C306.5814,-427 227.4186,-634 340,-634"/>
<path fill="none" stroke="#000000" stroke-width="2" d="M194,-429C304.7133,-426.2856 225.5506,-633.2856 340,-636"/>
</g>
<!-- X1&#45;&#45;W1 -->
<g id="edge7" class="edge">
<title>X1:e&#45;&#45;W1:w</title>
<path fill="none" stroke="#000000" stroke-width="2" d="M194,-401C308.0876,-403.7117 229.6506,-609.7117 340,-607"/>
<path fill="none" stroke="#00ff00" stroke-width="2" d="M194,-403C306.2185,-403 227.7815,-609 340,-609"/>
<path fill="none" stroke="#000000" stroke-width="2" d="M194,-405C304.3494,-402.2883 225.9124,-608.2883 340,-611"/>
</g>
<!-- W2 -->
<g id="node8" class="node">
<title>W2</title>
<polygon fill="#ffffff" stroke="#000000" stroke-dasharray="5,2" points="544,-563 340,-563 340,-379 544,-379 544,-563"/>
<polygon fill="none" stroke="#000000" points="340,-540 340,-563 544,-563 544,-540 340,-540"/>
<text text-anchor="start" x="431" y="-547.8" font-family="arial" font-size="14.00" fill="#000000">W2</text>
<polygon fill="none" stroke="#000000" points="340,-517 340,-540 364,-540 364,-517 340,-517"/>
<text text-anchor="start" x="344" y="-524.8" font-family="arial" font-size="14.00" fill="#000000">4x</text>
<polygon fill="none" stroke="#000000" points="364,-517 364,-540 499,-540 499,-517 364,-517"/>
<text text-anchor="start" x="368" y="-524.8" font-family="arial" font-size="14.00" fill="#000000">0.14 mm² (26 AWG)</text>
<polygon fill="none" stroke="#000000" points="499,-517 499,-540 544,-540 544,-517 499,-517"/>
<text text-anchor="start" x="503" y="-524.8" font-family="arial" font-size="14.00" fill="#000000">0.4 m</text>
<text text-anchor="start" x="373.5" y="-503.8" font-family="arial" font-size="14.00" fill="#000000"> </text>
<text text-anchor="start" x="360" y="-484.8" font-family="arial" font-size="14.00" fill="#000000">X1:1</text>
<text text-anchor="start" x="432" y="-484.8" font-family="arial" font-size="14.00" fill="#000000">BK</text>
<text text-anchor="start" x="493" y="-484.8" font-family="arial" font-size="14.00" fill="#000000">X3:1</text>
<polygon fill="#000000" stroke="transparent" points="340,-477 340,-479 544,-479 544,-477 340,-477"/>
<polygon fill="#000000" stroke="transparent" points="340,-475 340,-477 544,-477 544,-475 340,-475"/>
<polygon fill="#000000" stroke="transparent" points="340,-473 340,-475 544,-475 544,-473 340,-473"/>
<text text-anchor="start" x="360" y="-459.8" font-family="arial" font-size="14.00" fill="#000000">X1:2</text>
<text text-anchor="start" x="431" y="-459.8" font-family="arial" font-size="14.00" fill="#000000">RD</text>
<text text-anchor="start" x="493" y="-459.8" font-family="arial" font-size="14.00" fill="#000000">X3:2</text>
<polygon fill="#000000" stroke="transparent" points="340,-452 340,-454 544,-454 544,-452 340,-452"/>
<polygon fill="#ff0000" stroke="transparent" points="340,-450 340,-452 544,-452 544,-450 340,-450"/>
<polygon fill="#000000" stroke="transparent" points="340,-448 340,-450 544,-450 544,-448 340,-448"/>
<text text-anchor="start" x="360" y="-434.8" font-family="arial" font-size="14.00" fill="#000000">X1:3</text>
<text text-anchor="start" x="432" y="-434.8" font-family="arial" font-size="14.00" fill="#000000">YE</text>
<text text-anchor="start" x="493" y="-434.8" font-family="arial" font-size="14.00" fill="#000000">X3:3</text>
<polygon fill="#000000" stroke="transparent" points="340,-427 340,-429 544,-429 544,-427 340,-427"/>
<polygon fill="#ffff00" stroke="transparent" points="340,-425 340,-427 544,-427 544,-425 340,-425"/>
<polygon fill="#000000" stroke="transparent" points="340,-423 340,-425 544,-425 544,-423 340,-423"/>
<text text-anchor="start" x="360" y="-409.8" font-family="arial" font-size="14.00" fill="#000000">X1:4</text>
<text text-anchor="start" x="431" y="-409.8" font-family="arial" font-size="14.00" fill="#000000">GN</text>
<text text-anchor="start" x="493" y="-409.8" font-family="arial" font-size="14.00" fill="#000000">X3:4</text>
<polygon fill="#000000" stroke="transparent" points="340,-402 340,-404 544,-404 544,-402 340,-402"/>
<polygon fill="#00ff00" stroke="transparent" points="340,-400 340,-402 544,-402 544,-400 340,-400"/>
<polygon fill="#000000" stroke="transparent" points="340,-398 340,-400 544,-400 544,-398 340,-398"/>
<text text-anchor="start" x="373.5" y="-384.8" font-family="arial" font-size="14.00" fill="#000000"> </text>
</g>
<!-- X1&#45;&#45;W2 -->
<g id="edge9" class="edge">
<title>X1:e&#45;&#45;W2:w</title>
<path fill="none" stroke="#000000" stroke-width="2" d="M194,-471C259.2669,-471.0335 275.4617,-474.0335 340,-474"/>
<path fill="none" stroke="#000000" stroke-width="2" d="M194,-473C258.9026,-473 275.0974,-476 340,-476"/>
<path fill="none" stroke="#000000" stroke-width="2" d="M194,-475C258.5383,-474.9665 274.7331,-477.9665 340,-478"/>
</g>
<!-- X1&#45;&#45;W2 -->
<g id="edge11" class="edge">
<title>X1:e&#45;&#45;W2:w</title>
<path fill="none" stroke="#000000" stroke-width="2" d="M194,-448C259.0135,-448.0038 275.2327,-449.0038 340,-449"/>
<path fill="none" stroke="#ff0000" stroke-width="2" d="M194,-450C258.8904,-450 275.1096,-451 340,-451"/>
<path fill="none" stroke="#000000" stroke-width="2" d="M194,-452C258.7673,-451.9962 274.9865,-452.9962 340,-453"/>
</g>
<!-- X1&#45;&#45;W2 -->
<g id="edge13" class="edge">
<title>X1:e&#45;&#45;W2:w</title>
<path fill="none" stroke="#000000" stroke-width="2" d="M194,-425C258.7673,-425.0038 274.9865,-424.0038 340,-424"/>
<path fill="none" stroke="#ffff00" stroke-width="2" d="M194,-427C258.8904,-427 275.1096,-426 340,-426"/>
<path fill="none" stroke="#000000" stroke-width="2" d="M194,-429C259.0135,-428.9962 275.2327,-427.9962 340,-428"/>
</g>
<!-- X1&#45;&#45;W2 -->
<g id="edge15" class="edge">
<title>X1:e&#45;&#45;W2:w</title>
<path fill="none" stroke="#000000" stroke-width="2" d="M194,-401C258.6501,-401.0151 274.8601,-399.0151 340,-399"/>
<path fill="none" stroke="#00ff00" stroke-width="2" d="M194,-403C258.895,-403 275.105,-401 340,-401"/>
<path fill="none" stroke="#000000" stroke-width="2" d="M194,-405C259.1399,-404.9849 275.3499,-402.9849 340,-403"/>
</g>
<!-- W3 -->
<g id="node9" class="node">
<title>W3</title>
<polygon fill="#ffffff" stroke="#000000" stroke-dasharray="5,2" points="544,-355 340,-355 340,-171 544,-171 544,-355"/>
<polygon fill="none" stroke="#000000" points="340,-332 340,-355 544,-355 544,-332 340,-332"/>
<text text-anchor="start" x="431" y="-339.8" font-family="arial" font-size="14.00" fill="#000000">W3</text>
<polygon fill="none" stroke="#000000" points="340,-309 340,-332 364,-332 364,-309 340,-309"/>
<text text-anchor="start" x="344" y="-316.8" font-family="arial" font-size="14.00" fill="#000000">4x</text>
<polygon fill="none" stroke="#000000" points="364,-309 364,-332 499,-332 499,-309 364,-309"/>
<text text-anchor="start" x="368" y="-316.8" font-family="arial" font-size="14.00" fill="#000000">0.14 mm² (26 AWG)</text>
<polygon fill="none" stroke="#000000" points="499,-309 499,-332 544,-332 544,-309 499,-309"/>
<text text-anchor="start" x="503" y="-316.8" font-family="arial" font-size="14.00" fill="#000000">0.3 m</text>
<text text-anchor="start" x="373.5" y="-295.8" font-family="arial" font-size="14.00" fill="#000000"> </text>
<text text-anchor="start" x="360" y="-276.8" font-family="arial" font-size="14.00" fill="#000000">X1:1</text>
<text text-anchor="start" x="432.5" y="-276.8" font-family="arial" font-size="14.00" fill="#000000">BK</text>
<text text-anchor="start" x="493.5" y="-276.8" font-family="arial" font-size="14.00" fill="#000000">X4:1</text>
<polygon fill="#000000" stroke="transparent" points="340,-269 340,-271 544,-271 544,-269 340,-269"/>
<polygon fill="#000000" stroke="transparent" points="340,-267 340,-269 544,-269 544,-267 340,-267"/>
<polygon fill="#000000" stroke="transparent" points="340,-265 340,-267 544,-267 544,-265 340,-265"/>
<text text-anchor="start" x="360" y="-251.8" font-family="arial" font-size="14.00" fill="#000000">X1:5</text>
<text text-anchor="start" x="432" y="-251.8" font-family="arial" font-size="14.00" fill="#000000">BU</text>
<text text-anchor="start" x="493.5" y="-251.8" font-family="arial" font-size="14.00" fill="#000000">X4:3</text>
<polygon fill="#000000" stroke="transparent" points="340,-244 340,-246 544,-246 544,-244 340,-244"/>
<polygon fill="#0066ff" stroke="transparent" points="340,-242 340,-244 544,-244 544,-242 340,-242"/>
<polygon fill="#000000" stroke="transparent" points="340,-240 340,-242 544,-242 544,-240 340,-240"/>
<text text-anchor="start" x="360" y="-226.8" font-family="arial" font-size="14.00" fill="#000000">X1:6</text>
<text text-anchor="start" x="431" y="-226.8" font-family="arial" font-size="14.00" fill="#000000">OG</text>
<text text-anchor="start" x="493.5" y="-226.8" font-family="arial" font-size="14.00" fill="#000000">X4:4</text>
<polygon fill="#000000" stroke="transparent" points="340,-219 340,-221 544,-221 544,-219 340,-219"/>
<polygon fill="#ff8000" stroke="transparent" points="340,-217 340,-219 544,-219 544,-217 340,-217"/>
<polygon fill="#000000" stroke="transparent" points="340,-215 340,-217 544,-217 544,-215 340,-215"/>
<text text-anchor="start" x="360" y="-201.8" font-family="arial" font-size="14.00" fill="#000000">X1:7</text>
<text text-anchor="start" x="433" y="-201.8" font-family="arial" font-size="14.00" fill="#000000">VT</text>
<text text-anchor="start" x="493.5" y="-201.8" font-family="arial" font-size="14.00" fill="#000000">X4:5</text>
<polygon fill="#000000" stroke="transparent" points="340,-194 340,-196 544,-196 544,-194 340,-194"/>
<polygon fill="#8000ff" stroke="transparent" points="340,-192 340,-194 544,-194 544,-192 340,-192"/>
<polygon fill="#000000" stroke="transparent" points="340,-190 340,-192 544,-192 544,-190 340,-190"/>
<text text-anchor="start" x="373.5" y="-176.8" font-family="arial" font-size="14.00" fill="#000000"> </text>
</g>
<!-- X1&#45;&#45;W3 -->
<g id="edge17" class="edge">
<title>X1:e&#45;&#45;W3:w</title>
<path fill="none" stroke="#000000" stroke-width="2" d="M194,-471C303.986,-473.7089 226.2737,-268.7089 340,-266"/>
<path fill="none" stroke="#000000" stroke-width="2" d="M194,-473C305.8562,-473 228.1438,-268 340,-268"/>
<path fill="none" stroke="#000000" stroke-width="2" d="M194,-475C307.7263,-472.2911 230.014,-267.2911 340,-270"/>
</g>
<!-- X1&#45;&#45;W3 -->
<g id="edge19" class="edge">
<title>X1:e&#45;&#45;W3:w</title>
<path fill="none" stroke="#000000" stroke-width="2" d="M194,-378C281.0356,-380.4545 249.069,-243.4545 340,-241"/>
<path fill="none" stroke="#0066ff" stroke-width="2" d="M194,-380C282.9833,-380 251.0167,-243 340,-243"/>
<path fill="none" stroke="#000000" stroke-width="2" d="M194,-382C284.931,-379.5455 252.9644,-242.5455 340,-245"/>
</g>
<!-- X1&#45;&#45;W3 -->
<g id="edge21" class="edge">
<title>X1:e&#45;&#45;W3:w</title>
<path fill="none" stroke="#000000" stroke-width="2" d="M194,-355C281.6486,-357.4645 248.4608,-218.4645 340,-216"/>
<path fill="none" stroke="#ff8000" stroke-width="2" d="M194,-357C283.5939,-357 250.4061,-218 340,-218"/>
<path fill="none" stroke="#000000" stroke-width="2" d="M194,-359C285.5392,-356.5355 252.3514,-217.5355 340,-220"/>
</g>
<!-- X1&#45;&#45;W3 -->
<g id="edge23" class="edge">
<title>X1:e&#45;&#45;W3:w</title>
<path fill="none" stroke="#000000" stroke-width="2" d="M194,-332C282.2661,-334.4743 247.848,-193.4743 340,-191"/>
<path fill="none" stroke="#8000ff" stroke-width="2" d="M194,-334C284.2091,-334 249.7909,-193 340,-193"/>
<path fill="none" stroke="#000000" stroke-width="2" d="M194,-336C286.152,-333.5257 251.7339,-192.5257 340,-195"/>
</g>
<!-- X2 -->
<g id="node2" class="node">
<title>X2</title>
<polygon fill="#ffffff" stroke="transparent" points="880,-739 688,-739 688,-601 880,-601 880,-739"/>
<polygon fill="none" stroke="#000000" points="688,-716 688,-739 880,-739 880,-716 688,-716"/>
<text text-anchor="start" x="774.5" y="-723.8" font-family="arial" font-size="14.00" fill="#000000">X2</text>
<polygon fill="none" stroke="#000000" points="688,-693 688,-716 787,-716 787,-693 688,-693"/>
<text text-anchor="start" x="692" y="-700.8" font-family="arial" font-size="14.00" fill="#000000">Molex KK 254</text>
<polygon fill="none" stroke="#000000" points="787,-693 787,-716 839,-716 839,-693 787,-693"/>
<text text-anchor="start" x="791" y="-700.8" font-family="arial" font-size="14.00" fill="#000000">female</text>
<polygon fill="none" stroke="#000000" points="839,-693 839,-716 880,-716 880,-693 839,-693"/>
<text text-anchor="start" x="843" y="-700.8" font-family="arial" font-size="14.00" fill="#000000">4&#45;pin</text>
<polygon fill="none" stroke="#000000" points="688,-670 688,-693 772,-693 772,-670 688,-670"/>
<text text-anchor="start" x="725.5" y="-677.8" font-family="arial" font-size="14.00" fill="#000000">1</text>
<polygon fill="none" stroke="#000000" points="772,-670 772,-693 880,-693 880,-670 772,-670"/>
<text text-anchor="start" x="809.5" y="-677.8" font-family="arial" font-size="14.00" fill="#000000">GND</text>
<polygon fill="none" stroke="#000000" points="688,-647 688,-670 772,-670 772,-647 688,-647"/>
<text text-anchor="start" x="725.5" y="-654.8" font-family="arial" font-size="14.00" fill="#000000">2</text>
<polygon fill="none" stroke="#000000" points="772,-647 772,-670 880,-670 880,-647 772,-647"/>
<text text-anchor="start" x="812.5" y="-654.8" font-family="arial" font-size="14.00" fill="#000000">+5V</text>
<polygon fill="none" stroke="#000000" points="688,-624 688,-647 772,-647 772,-624 688,-624"/>
<text text-anchor="start" x="725.5" y="-631.8" font-family="arial" font-size="14.00" fill="#000000">3</text>
<polygon fill="none" stroke="#000000" points="772,-624 772,-647 880,-647 880,-624 772,-624"/>
<text text-anchor="start" x="811.5" y="-631.8" font-family="arial" font-size="14.00" fill="#000000">SCL</text>
<polygon fill="none" stroke="#000000" points="688,-601 688,-624 772,-624 772,-601 688,-601"/>
<text text-anchor="start" x="725.5" y="-608.8" font-family="arial" font-size="14.00" fill="#000000">4</text>
<polygon fill="none" stroke="#000000" points="772,-601 772,-624 880,-624 880,-601 772,-601"/>
<text text-anchor="start" x="810.5" y="-608.8" font-family="arial" font-size="14.00" fill="#000000">SDA</text>
</g>
<!-- X3 -->
<g id="node3" class="node">
<title>X3</title>
<polygon fill="#ffffff" stroke="transparent" points="880,-531 688,-531 688,-393 880,-393 880,-531"/>
<polygon fill="none" stroke="#000000" points="688,-508 688,-531 880,-531 880,-508 688,-508"/>
<text text-anchor="start" x="774.5" y="-515.8" font-family="arial" font-size="14.00" fill="#000000">X3</text>
<polygon fill="none" stroke="#000000" points="688,-485 688,-508 787,-508 787,-485 688,-485"/>
<text text-anchor="start" x="692" y="-492.8" font-family="arial" font-size="14.00" fill="#000000">Molex KK 254</text>
<polygon fill="none" stroke="#000000" points="787,-485 787,-508 839,-508 839,-485 787,-485"/>
<text text-anchor="start" x="791" y="-492.8" font-family="arial" font-size="14.00" fill="#000000">female</text>
<polygon fill="none" stroke="#000000" points="839,-485 839,-508 880,-508 880,-485 839,-485"/>
<text text-anchor="start" x="843" y="-492.8" font-family="arial" font-size="14.00" fill="#000000">4&#45;pin</text>
<polygon fill="none" stroke="#000000" points="688,-462 688,-485 772,-485 772,-462 688,-462"/>
<text text-anchor="start" x="725.5" y="-469.8" font-family="arial" font-size="14.00" fill="#000000">1</text>
<polygon fill="none" stroke="#000000" points="772,-462 772,-485 880,-485 880,-462 772,-462"/>
<text text-anchor="start" x="809.5" y="-469.8" font-family="arial" font-size="14.00" fill="#000000">GND</text>
<polygon fill="none" stroke="#000000" points="688,-439 688,-462 772,-462 772,-439 688,-439"/>
<text text-anchor="start" x="725.5" y="-446.8" font-family="arial" font-size="14.00" fill="#000000">2</text>
<polygon fill="none" stroke="#000000" points="772,-439 772,-462 880,-462 880,-439 772,-439"/>
<text text-anchor="start" x="812.5" y="-446.8" font-family="arial" font-size="14.00" fill="#000000">+5V</text>
<polygon fill="none" stroke="#000000" points="688,-416 688,-439 772,-439 772,-416 688,-416"/>
<text text-anchor="start" x="725.5" y="-423.8" font-family="arial" font-size="14.00" fill="#000000">3</text>
<polygon fill="none" stroke="#000000" points="772,-416 772,-439 880,-439 880,-416 772,-416"/>
<text text-anchor="start" x="811.5" y="-423.8" font-family="arial" font-size="14.00" fill="#000000">SCL</text>
<polygon fill="none" stroke="#000000" points="688,-393 688,-416 772,-416 772,-393 688,-393"/>
<text text-anchor="start" x="725.5" y="-400.8" font-family="arial" font-size="14.00" fill="#000000">4</text>
<polygon fill="none" stroke="#000000" points="772,-393 772,-416 880,-416 880,-393 772,-393"/>
<text text-anchor="start" x="810.5" y="-400.8" font-family="arial" font-size="14.00" fill="#000000">SDA</text>
</g>
<!-- X4 -->
<g id="node4" class="node">
<title>X4</title>
<polygon fill="#ffffff" stroke="transparent" points="880,-334.5 688,-334.5 688,-173.5 880,-173.5 880,-334.5"/>
<polygon fill="none" stroke="#000000" points="688,-311 688,-334 880,-334 880,-311 688,-311"/>
<text text-anchor="start" x="774.5" y="-318.8" font-family="arial" font-size="14.00" fill="#000000">X4</text>
<polygon fill="none" stroke="#000000" points="688,-288 688,-311 787,-311 787,-288 688,-288"/>
<text text-anchor="start" x="692" y="-295.8" font-family="arial" font-size="14.00" fill="#000000">Molex KK 254</text>
<polygon fill="none" stroke="#000000" points="787,-288 787,-311 839,-311 839,-288 787,-288"/>
<text text-anchor="start" x="791" y="-295.8" font-family="arial" font-size="14.00" fill="#000000">female</text>
<polygon fill="none" stroke="#000000" points="839,-288 839,-311 880,-311 880,-288 839,-288"/>
<text text-anchor="start" x="843" y="-295.8" font-family="arial" font-size="14.00" fill="#000000">5&#45;pin</text>
<polygon fill="none" stroke="#000000" points="688,-265 688,-288 770,-288 770,-265 688,-265"/>
<text text-anchor="start" x="724.5" y="-272.8" font-family="arial" font-size="14.00" fill="#000000">1</text>
<polygon fill="none" stroke="#000000" points="770,-265 770,-288 880,-288 880,-265 770,-265"/>
<text text-anchor="start" x="808.5" y="-272.8" font-family="arial" font-size="14.00" fill="#000000">GND</text>
<polygon fill="none" stroke="#000000" points="688,-242 688,-265 770,-265 770,-242 688,-242"/>
<text text-anchor="start" x="724.5" y="-249.8" font-family="arial" font-size="14.00" fill="#000000">2</text>
<polygon fill="none" stroke="#000000" points="770,-242 770,-265 880,-265 880,-242 770,-242"/>
<text text-anchor="start" x="807.5" y="-249.8" font-family="arial" font-size="14.00" fill="#000000">+12V</text>
<polygon fill="none" stroke="#000000" points="688,-219 688,-242 770,-242 770,-219 688,-219"/>
<text text-anchor="start" x="724.5" y="-226.8" font-family="arial" font-size="14.00" fill="#000000">3</text>
<polygon fill="none" stroke="#000000" points="770,-219 770,-242 880,-242 880,-219 770,-219"/>
<text text-anchor="start" x="806.5" y="-226.8" font-family="arial" font-size="14.00" fill="#000000">MISO</text>
<polygon fill="none" stroke="#000000" points="688,-196 688,-219 770,-219 770,-196 688,-196"/>
<text text-anchor="start" x="724.5" y="-203.8" font-family="arial" font-size="14.00" fill="#000000">4</text>
<polygon fill="none" stroke="#000000" points="770,-196 770,-219 880,-219 880,-196 770,-196"/>
<text text-anchor="start" x="806.5" y="-203.8" font-family="arial" font-size="14.00" fill="#000000">MOSI</text>
<polygon fill="none" stroke="#000000" points="688,-173 688,-196 770,-196 770,-173 688,-173"/>
<text text-anchor="start" x="724.5" y="-180.8" font-family="arial" font-size="14.00" fill="#000000">5</text>
<polygon fill="none" stroke="#000000" points="770,-173 770,-196 880,-196 880,-173 770,-173"/>
<text text-anchor="start" x="809.5" y="-180.8" font-family="arial" font-size="14.00" fill="#000000">SCK</text>
</g>
<!-- _ferrule_crimp_1 -->
<g id="node5" class="node">
<title>_ferrule_crimp_1</title>
<polygon fill="#ffffff" stroke="transparent" points="196,-96 0,-96 0,-60 196,-60 196,-96"/>
<polygon fill="none" stroke="#000000" points="0,-66 0,-89 91,-89 91,-66 0,-66"/>
<text text-anchor="start" x="4" y="-73.8" font-family="arial" font-size="14.00" fill="#000000">Crimp ferrule</text>
<polygon fill="none" stroke="#000000" points="91,-66 91,-89 160,-89 160,-66 91,-66"/>
<text text-anchor="start" x="95" y="-73.8" font-family="arial" font-size="14.00" fill="#000000">0.25 mm²</text>
<polygon fill="none" stroke="#000000" points="160,-66 160,-89 188,-89 188,-66 160,-66"/>
<text text-anchor="start" x="164" y="-73.8" font-family="arial" font-size="14.00" fill="#000000">YE</text>
<polygon fill="#ffff00" stroke="transparent" points="188,-66 188,-89 196,-89 196,-66 188,-66"/>
<polygon fill="none" stroke="#000000" points="188,-66 188,-89 196,-89 196,-66 188,-66"/>
</g>
<!-- W4 -->
<g id="node10" class="node">
<title>W4</title>
<polygon fill="none" stroke="#000000" points="544,-147 340,-147 340,-13 544,-13 544,-147"/>
<polygon fill="none" stroke="#000000" points="340,-124 340,-147 544,-147 544,-124 340,-124"/>
<text text-anchor="start" x="431" y="-131.8" font-family="arial" font-size="14.00" fill="#000000">W4</text>
<polygon fill="none" stroke="#000000" points="340,-101 340,-124 364,-124 364,-101 340,-101"/>
<text text-anchor="start" x="344" y="-108.8" font-family="arial" font-size="14.00" fill="#000000">2x</text>
<polygon fill="none" stroke="#000000" points="364,-101 364,-124 499,-124 499,-101 364,-101"/>
<text text-anchor="start" x="368" y="-108.8" font-family="arial" font-size="14.00" fill="#000000">0.25 mm² (24 AWG)</text>
<polygon fill="none" stroke="#000000" points="499,-101 499,-124 544,-124 544,-101 499,-101"/>
<text text-anchor="start" x="503" y="-108.8" font-family="arial" font-size="14.00" fill="#000000">0.3 m</text>
<text text-anchor="start" x="364.5" y="-87.8" font-family="arial" font-size="14.00" fill="#000000"> </text>
<text text-anchor="start" x="418.5" y="-68.8" font-family="arial" font-size="14.00" fill="#000000">BK</text>
<text text-anchor="start" x="488.5" y="-68.8" font-family="arial" font-size="14.00" fill="#000000">X4:1</text>
<polygon fill="#000000" stroke="transparent" points="340,-61 340,-63 544,-63 544,-61 340,-61"/>
<polygon fill="#000000" stroke="transparent" points="340,-59 340,-61 544,-61 544,-59 340,-59"/>
<polygon fill="#000000" stroke="transparent" points="340,-57 340,-59 544,-59 544,-57 340,-57"/>
<text text-anchor="start" x="417.5" y="-43.8" font-family="arial" font-size="14.00" fill="#000000">RD</text>
<text text-anchor="start" x="488.5" y="-43.8" font-family="arial" font-size="14.00" fill="#000000">X4:2</text>
<polygon fill="#000000" stroke="transparent" points="340,-36 340,-38 544,-38 544,-36 340,-36"/>
<polygon fill="#ff0000" stroke="transparent" points="340,-34 340,-36 544,-36 544,-34 340,-34"/>
<polygon fill="#000000" stroke="transparent" points="340,-32 340,-34 544,-34 544,-32 340,-32"/>
<text text-anchor="start" x="364.5" y="-18.8" font-family="arial" font-size="14.00" fill="#000000"> </text>
</g>
<!-- _ferrule_crimp_1&#45;&#45;W4 -->
<g id="edge25" class="edge">
<title>_ferrule_crimp_1:e&#45;&#45;W4:w</title>
<path fill="none" stroke="#000000" stroke-width="2" d="M196,-76C258.9618,-76.7194 273.9657,-58.7194 340,-58"/>
<path fill="none" stroke="#000000" stroke-width="2" d="M196,-78C260.4981,-78 275.5019,-60 340,-60"/>
<path fill="none" stroke="#000000" stroke-width="2" d="M196,-80C262.0343,-79.2806 277.0382,-61.2806 340,-62"/>
</g>
<!-- _ferrule_crimp_2 -->
<g id="node6" class="node">
<title>_ferrule_crimp_2</title>
<polygon fill="#ffffff" stroke="transparent" points="196,-36 0,-36 0,0 196,0 196,-36"/>
<polygon fill="none" stroke="#000000" points="0,-6 0,-29 91,-29 91,-6 0,-6"/>
<text text-anchor="start" x="4" y="-13.8" font-family="arial" font-size="14.00" fill="#000000">Crimp ferrule</text>
<polygon fill="none" stroke="#000000" points="91,-6 91,-29 160,-29 160,-6 91,-6"/>
<text text-anchor="start" x="95" y="-13.8" font-family="arial" font-size="14.00" fill="#000000">0.25 mm²</text>
<polygon fill="none" stroke="#000000" points="160,-6 160,-29 188,-29 188,-6 160,-6"/>
<text text-anchor="start" x="164" y="-13.8" font-family="arial" font-size="14.00" fill="#000000">YE</text>
<polygon fill="#ffff00" stroke="transparent" points="188,-6 188,-29 196,-29 196,-6 188,-6"/>
<polygon fill="none" stroke="#000000" points="188,-6 188,-29 196,-29 196,-6 188,-6"/>
</g>
<!-- _ferrule_crimp_2&#45;&#45;W4 -->
<g id="edge27" class="edge">
<title>_ferrule_crimp_2:e&#45;&#45;W4:w</title>
<path fill="none" stroke="#000000" stroke-width="2" d="M196,-16C261.9393,-16.6713 277.0504,-33.6713 340,-33"/>
<path fill="none" stroke="#ff0000" stroke-width="2" d="M196,-18C260.4444,-18 275.5556,-35 340,-35"/>
<path fill="none" stroke="#000000" stroke-width="2" d="M196,-20C258.9496,-19.3287 274.0607,-36.3287 340,-37"/>
</g>
<!-- W1&#45;&#45;X2 -->
<g id="edge2" class="edge">
<title>W1:e&#45;&#45;X2:w</title>
<path fill="none" stroke="#000000" stroke-width="2" d="M544,-682C607.7579,-682.0155 623.7456,-680.0155 688,-680"/>
<path fill="none" stroke="#000000" stroke-width="2" d="M544,-684C608.0062,-684 623.9938,-682 688,-682"/>
<path fill="none" stroke="#000000" stroke-width="2" d="M544,-686C608.2544,-685.9845 624.2421,-683.9845 688,-684"/>
</g>
<!-- W1&#45;&#45;X2 -->
<g id="edge4" class="edge">
<title>W1:e&#45;&#45;X2:w</title>
<path fill="none" stroke="#000000" stroke-width="2" d="M544,-657C607.8768,-657.0039 623.8737,-656.0039 688,-656"/>
<path fill="none" stroke="#ff0000" stroke-width="2" d="M544,-659C608.0015,-659 623.9985,-658 688,-658"/>
<path fill="none" stroke="#000000" stroke-width="2" d="M544,-661C608.1263,-660.9961 624.1232,-659.9961 688,-660"/>
</g>
<!-- W1&#45;&#45;X2 -->
<g id="edge6" class="edge">
<title>W1:e&#45;&#45;X2:w</title>
<path fill="none" stroke="#000000" stroke-width="2" d="M544,-632C608.1263,-632.0039 624.1232,-633.0039 688,-633"/>
<path fill="none" stroke="#ffff00" stroke-width="2" d="M544,-634C608.0015,-634 623.9985,-635 688,-635"/>
<path fill="none" stroke="#000000" stroke-width="2" d="M544,-636C607.8768,-635.9961 623.8737,-636.9961 688,-637"/>
</g>
<!-- W1&#45;&#45;X2 -->
<g id="edge8" class="edge">
<title>W1:e&#45;&#45;X2:w</title>
<path fill="none" stroke="#000000" stroke-width="2" d="M544,-607C608.3831,-607.0344 624.3553,-610.0344 688,-610"/>
<path fill="none" stroke="#00ff00" stroke-width="2" d="M544,-609C608.0139,-609 623.9861,-612 688,-612"/>
<path fill="none" stroke="#000000" stroke-width="2" d="M544,-611C607.6447,-610.9656 623.6169,-613.9656 688,-614"/>
</g>
<!-- W2&#45;&#45;X3 -->
<g id="edge10" class="edge">
<title>W2:e&#45;&#45;X3:w</title>
<path fill="none" stroke="#000000" stroke-width="2" d="M544,-474C607.7579,-474.0155 623.7456,-472.0155 688,-472"/>
<path fill="none" stroke="#000000" stroke-width="2" d="M544,-476C608.0062,-476 623.9938,-474 688,-474"/>
<path fill="none" stroke="#000000" stroke-width="2" d="M544,-478C608.2544,-477.9845 624.2421,-475.9845 688,-476"/>
</g>
<!-- W2&#45;&#45;X3 -->
<g id="edge12" class="edge">
<title>W2:e&#45;&#45;X3:w</title>
<path fill="none" stroke="#000000" stroke-width="2" d="M544,-449C607.8768,-449.0039 623.8737,-448.0039 688,-448"/>
<path fill="none" stroke="#ff0000" stroke-width="2" d="M544,-451C608.0015,-451 623.9985,-450 688,-450"/>
<path fill="none" stroke="#000000" stroke-width="2" d="M544,-453C608.1263,-452.9961 624.1232,-451.9961 688,-452"/>
</g>
<!-- W2&#45;&#45;X3 -->
<g id="edge14" class="edge">
<title>W2:e&#45;&#45;X3:w</title>
<path fill="none" stroke="#000000" stroke-width="2" d="M544,-424C608.1263,-424.0039 624.1232,-425.0039 688,-425"/>
<path fill="none" stroke="#ffff00" stroke-width="2" d="M544,-426C608.0015,-426 623.9985,-427 688,-427"/>
<path fill="none" stroke="#000000" stroke-width="2" d="M544,-428C607.8768,-427.9961 623.8737,-428.9961 688,-429"/>
</g>
<!-- W2&#45;&#45;X3 -->
<g id="edge16" class="edge">
<title>W2:e&#45;&#45;X3:w</title>
<path fill="none" stroke="#000000" stroke-width="2" d="M544,-399C608.3831,-399.0344 624.3553,-402.0344 688,-402"/>
<path fill="none" stroke="#00ff00" stroke-width="2" d="M544,-401C608.0139,-401 623.9861,-404 688,-404"/>
<path fill="none" stroke="#000000" stroke-width="2" d="M544,-403C607.6447,-402.9656 623.6169,-405.9656 688,-406"/>
</g>
<!-- W3&#45;&#45;X4 -->
<g id="edge18" class="edge">
<title>W3:e&#45;&#45;X4:w</title>
<path fill="none" stroke="#000000" stroke-width="2" d="M544,-266C609.1171,-266.2635 624.8674,-275.2635 688,-275"/>
<path fill="none" stroke="#000000" stroke-width="2" d="M544,-268C608.1249,-268 623.8751,-277 688,-277"/>
<path fill="none" stroke="#000000" stroke-width="2" d="M544,-270C607.1326,-269.7365 622.8829,-278.7365 688,-279"/>
</g>
<!-- W3&#45;&#45;X4 -->
<g id="edge20" class="edge">
<title>W3:e&#45;&#45;X4:w</title>
<path fill="none" stroke="#000000" stroke-width="2" d="M544,-241C606.974,-241.4685 622.4535,-228.4685 688,-228"/>
<path fill="none" stroke="#0066ff" stroke-width="2" d="M544,-243C608.2603,-243 623.7397,-230 688,-230"/>
<path fill="none" stroke="#000000" stroke-width="2" d="M544,-245C609.5465,-244.5315 625.026,-231.5315 688,-232"/>
</g>
<!-- W3&#45;&#45;X4 -->
<g id="edge22" class="edge">
<title>W3:e&#45;&#45;X4:w</title>
<path fill="none" stroke="#000000" stroke-width="2" d="M544,-216C607.0352,-216.3645 622.6623,-205.3645 688,-205"/>
<path fill="none" stroke="#ff8000" stroke-width="2" d="M544,-218C608.1865,-218 623.8135,-207 688,-207"/>
<path fill="none" stroke="#000000" stroke-width="2" d="M544,-220C609.3377,-219.6355 624.9648,-208.6355 688,-209"/>
</g>
<!-- W3&#45;&#45;X4 -->
<g id="edge24" class="edge">
<title>W3:e&#45;&#45;X4:w</title>
<path fill="none" stroke="#000000" stroke-width="2" d="M544,-191C607.1326,-191.2635 622.8829,-182.2635 688,-182"/>
<path fill="none" stroke="#8000ff" stroke-width="2" d="M544,-193C608.1249,-193 623.8751,-184 688,-184"/>
<path fill="none" stroke="#000000" stroke-width="2" d="M544,-195C609.1171,-194.7365 624.8674,-185.7365 688,-186"/>
</g>
<!-- W4&#45;&#45;X4 -->
<g id="edge26" class="edge">
<title>W4:e&#45;&#45;X4:w</title>
<path fill="none" stroke="#000000" stroke-width="2" d="M544,-58C661.6026,-60.7479 574.1072,-277.7479 688,-275"/>
<path fill="none" stroke="#000000" stroke-width="2" d="M544,-60C659.7477,-60 572.2523,-277 688,-277"/>
<path fill="none" stroke="#000000" stroke-width="2" d="M544,-62C657.8928,-59.2521 570.3974,-276.2521 688,-279"/>
</g>
<!-- W4&#45;&#45;X4 -->
<g id="edge28" class="edge">
<title>W4:e&#45;&#45;X4:w</title>
<path fill="none" stroke="#000000" stroke-width="2" d="M544,-33C661.9722,-35.7504 573.7356,-253.7504 688,-251"/>
<path fill="none" stroke="#ff0000" stroke-width="2" d="M544,-35C660.1183,-35 571.8817,-253 688,-253"/>
<path fill="none" stroke="#000000" stroke-width="2" d="M544,-37C658.2644,-34.2496 570.0278,-252.2496 688,-255"/>
</g>
</g>
</svg>
