<?xml version="1.0" encoding="UTF-8" standalone="no"?>
<!DOCTYPE svg PUBLIC "-//W3C//DTD SVG 1.1//EN"
 "http://www.w3.org/Graphics/SVG/1.1/DTD/svg11.dtd">
<!-- Generated by graphviz version 2.40.1 (20161225.0304)
 -->
<!-- Title: %3 Pages: 1 -->
<svg width="959pt" height="232pt"
 viewBox="0.00 0.00 959.00 232.00" xmlns="http://www.w3.org/2000/svg" xmlns:xlink="http://www.w3.org/1999/xlink">
<g id="graph0" class="graph" transform="scale(1 1) rotate(0) translate(4 228)">
<title>%3</title>
<polygon fill="#ffffff" stroke="transparent" points="-4,4 -4,-228 955,-228 955,4 -4,4"/>
<!-- X1 -->
<g id="node1" class="node">
<title>X1</title>
<polygon fill="#ffffff" stroke="transparent" points="192,-191 0,-191 0,-53 192,-53 192,-191"/>
<polygon fill="none" stroke="#000000" points="0,-168 0,-191 192,-191 192,-168 0,-168"/>
<text text-anchor="start" x="86.5" y="-175.8" font-family="arial" font-size="14.00" fill="#000000">X1</text>
<polygon fill="none" stroke="#000000" points="0,-145 0,-168 99,-168 99,-145 0,-145"/>
<text text-anchor="start" x="4" y="-152.8" font-family="arial" font-size="14.00" fill="#000000">Molex KK 254</text>
<polygon fill="none" stroke="#000000" points="99,-145 99,-168 151,-168 151,-145 99,-145"/>
<text text-anchor="start" x="103" y="-152.8" font-family="arial" font-size="14.00" fill="#000000">female</text>
<polygon fill="none" stroke="#000000" points="151,-145 151,-168 192,-168 192,-145 151,-145"/>
<text text-anchor="start" x="155" y="-152.8" font-family="arial" font-size="14.00" fill="#000000">4&#45;pin</text>
<polygon fill="none" stroke="#000000" points="0,-122 0,-145 108,-145 108,-122 0,-122"/>
<text text-anchor="start" x="37.5" y="-129.8" font-family="arial" font-size="14.00" fill="#000000">GND</text>
<polygon fill="none" stroke="#000000" points="108,-122 108,-145 192,-145 192,-122 108,-122"/>
<text text-anchor="start" x="145.5" y="-129.8" font-family="arial" font-size="14.00" fill="#000000">1</text>
<polygon fill="none" stroke="#000000" points="0,-99 0,-122 108,-122 108,-99 0,-99"/>
<text text-anchor="start" x="38.5" y="-106.8" font-family="arial" font-size="14.00" fill="#000000">VCC</text>
<polygon fill="none" stroke="#000000" points="108,-99 108,-122 192,-122 192,-99 108,-99"/>
<text text-anchor="start" x="145.5" y="-106.8" font-family="arial" font-size="14.00" fill="#000000">2</text>
<polygon fill="none" stroke="#000000" points="0,-76 0,-99 108,-99 108,-76 0,-76"/>
<text text-anchor="start" x="43.5" y="-83.8" font-family="arial" font-size="14.00" fill="#000000">RX</text>
<polygon fill="none" stroke="#000000" points="108,-76 108,-99 192,-99 192,-76 108,-76"/>
<text text-anchor="start" x="145.5" y="-83.8" font-family="arial" font-size="14.00" fill="#000000">3</text>
<polygon fill="none" stroke="#000000" points="0,-53 0,-76 108,-76 108,-53 0,-53"/>
<text text-anchor="start" x="44.5" y="-60.8" font-family="arial" font-size="14.00" fill="#000000">TX</text>
<polygon fill="none" stroke="#000000" points="108,-53 108,-76 192,-76 192,-53 108,-53"/>
<text text-anchor="start" x="145.5" y="-60.8" font-family="arial" font-size="14.00" fill="#000000">4</text>
</g>
<!-- W1 -->
<g id="node3" class="node">
<title>W1</title>
<polygon fill="none" stroke="#000000" points="615,-224 336,-224 336,0 615,0 615,-224"/>
<polygon fill="none" stroke="#000000" points="336.5,-201 336.5,-224 615.5,-224 615.5,-201 336.5,-201"/>
<text text-anchor="start" x="465" y="-208.8" font-family="arial" font-size="14.00" fill="#000000">W1</text>
<polygon fill="none" stroke="#000000" points="336.5,-178 336.5,-201 381.5,-201 381.5,-178 336.5,-178"/>
<text text-anchor="start" x="340.5" y="-185.8" font-family="arial" font-size="14.00" fill="#000000">Serial</text>
<polygon fill="none" stroke="#000000" points="381.5,-178 381.5,-201 405.5,-201 405.5,-178 381.5,-178"/>
<text text-anchor="start" x="385.5" y="-185.8" font-family="arial" font-size="14.00" fill="#000000">4x</text>
<polygon fill="none" stroke="#000000" points="405.5,-178 405.5,-201 540.5,-201 540.5,-178 405.5,-178"/>
<text text-anchor="start" x="409.5" y="-185.8" font-family="arial" font-size="14.00" fill="#000000">0.25 mm² (24 AWG)</text>
<polygon fill="none" stroke="#000000" points="540.5,-178 540.5,-201 570.5,-201 570.5,-178 540.5,-178"/>
<text text-anchor="start" x="544.5" y="-185.8" font-family="arial" font-size="14.00" fill="#000000">+ S</text>
<polygon fill="none" stroke="#000000" points="570.5,-178 570.5,-201 615.5,-201 615.5,-178 570.5,-178"/>
<text text-anchor="start" x="574.5" y="-185.8" font-family="arial" font-size="14.00" fill="#000000">0.2 m</text>
<text text-anchor="start" x="379.5" y="-164.8" font-family="arial" font-size="14.00" fill="#000000"> </text>
<text text-anchor="start" x="366" y="-145.8" font-family="arial" font-size="14.00" fill="#000000">X1:1</text>
<text text-anchor="start" x="466" y="-145.8" font-family="arial" font-size="14.00" fill="#000000">BN</text>
<text text-anchor="start" x="555.5" y="-145.8" font-family="arial" font-size="14.00" fill="#000000">X2:1</text>
<polygon fill="#000000" stroke="transparent" points="336.5,-138 336.5,-140 615.5,-140 615.5,-138 336.5,-138"/>
<polygon fill="#895956" stroke="transparent" points="336.5,-136 336.5,-138 615.5,-138 615.5,-136 336.5,-136"/>
<polygon fill="#000000" stroke="transparent" points="336.5,-134 336.5,-136 615.5,-136 615.5,-134 336.5,-134"/>
<text text-anchor="start" x="366" y="-120.8" font-family="arial" font-size="14.00" fill="#000000">X1:2</text>
<text text-anchor="start" x="465.5" y="-120.8" font-family="arial" font-size="14.00" fill="#000000">RD</text>
<text text-anchor="start" x="555.5" y="-120.8" font-family="arial" font-size="14.00" fill="#000000">X2:2</text>
<polygon fill="#000000" stroke="transparent" points="336.5,-113 336.5,-115 615.5,-115 615.5,-113 336.5,-113"/>
<polygon fill="#ff0000" stroke="transparent" points="336.5,-111 336.5,-113 615.5,-113 615.5,-111 336.5,-111"/>
<polygon fill="#000000" stroke="transparent" points="336.5,-109 336.5,-111 615.5,-111 615.5,-109 336.5,-109"/>
<text text-anchor="start" x="366" y="-95.8" font-family="arial" font-size="14.00" fill="#000000">X1:3</text>
<text text-anchor="start" x="465" y="-95.8" font-family="arial" font-size="14.00" fill="#000000">OG</text>
<text text-anchor="start" x="555.5" y="-95.8" font-family="arial" font-size="14.00" fill="#000000">X2:4</text>
<polygon fill="#000000" stroke="transparent" points="336.5,-88 336.5,-90 615.5,-90 615.5,-88 336.5,-88"/>
<polygon fill="#ff8000" stroke="transparent" points="336.5,-86 336.5,-88 615.5,-88 615.5,-86 336.5,-86"/>
<polygon fill="#000000" stroke="transparent" points="336.5,-84 336.5,-86 615.5,-86 615.5,-84 336.5,-84"/>
<text text-anchor="start" x="366" y="-70.8" font-family="arial" font-size="14.00" fill="#000000">X1:4</text>
<text text-anchor="start" x="466.5" y="-70.8" font-family="arial" font-size="14.00" fill="#000000">YE</text>
<text text-anchor="start" x="555.5" y="-70.8" font-family="arial" font-size="14.00" fill="#000000">X2:3</text>
<polygon fill="#000000" stroke="transparent" points="336.5,-63 336.5,-65 615.5,-65 615.5,-63 336.5,-63"/>
<polygon fill="#ffff00" stroke="transparent" points="336.5,-61 336.5,-63 615.5,-63 615.5,-61 336.5,-61"/>
<polygon fill="#000000" stroke="transparent" points="336.5,-59 336.5,-61 615.5,-61 615.5,-59 336.5,-59"/>
<text text-anchor="start" x="379.5" y="-45.8" font-family="arial" font-size="14.00" fill="#000000"> </text>
<text text-anchor="start" x="366" y="-26.8" font-family="arial" font-size="14.00" fill="#000000">X1:1</text>
<text text-anchor="start" x="456" y="-26.8" font-family="arial" font-size="14.00" fill="#000000">Shield</text>
<polygon fill="#000000" stroke="transparent" points="336.5,-19 336.5,-21 615.5,-21 615.5,-19 336.5,-19"/>
<text text-anchor="start" x="379.5" y="-5.8" font-family="arial" font-size="14.00" fill="#000000"> </text>
</g>
<!-- X1&#45;&#45;W1 -->
<g id="edge1" class="edge">
<title>X1:e&#45;&#45;W1:w</title>
<path fill="none" stroke="#000000" stroke-width="2" d="M192,-132C256.604,-132.0341 272.6319,-135.0341 336.5,-135"/>
<path fill="none" stroke="#895956" stroke-width="2" d="M192,-134C256.2361,-134 272.2639,-137 336.5,-137"/>
<path fill="none" stroke="#000000" stroke-width="2" d="M192,-136C255.8681,-135.9659 271.896,-138.9659 336.5,-139"/>
</g>
<!-- X1&#45;&#45;W1 -->
<g id="edge3" class="edge">
<title>X1:e&#45;&#45;W1:w</title>
<path fill="none" stroke="#000000" stroke-width="2" d="M192,-108C256.4758,-108.0154 272.519,-110.0154 336.5,-110"/>
<path fill="none" stroke="#ff0000" stroke-width="2" d="M192,-110C256.2284,-110 272.2716,-112 336.5,-112"/>
<path fill="none" stroke="#000000" stroke-width="2" d="M192,-112C255.981,-111.9846 272.0242,-113.9846 336.5,-114"/>
</g>
<!-- X1&#45;&#45;W1 -->
<g id="edge5" class="edge">
<title>X1:e&#45;&#45;W1:w</title>
<path fill="none" stroke="#000000" stroke-width="2" d="M192,-85C256.2222,-85 272.2778,-85 336.5,-85"/>
<path fill="none" stroke="#ff8000" stroke-width="2" d="M192,-87C256.2222,-87 272.2778,-87 336.5,-87"/>
<path fill="none" stroke="#000000" stroke-width="2" d="M192,-89C256.2222,-89 272.2778,-89 336.5,-89"/>
</g>
<!-- X1&#45;&#45;W1 -->
<g id="edge7" class="edge">
<title>X1:e&#45;&#45;W1:w</title>
<path fill="none" stroke="#000000" stroke-width="2" d="M192,-62C255.981,-62.0154 272.0242,-60.0154 336.5,-60"/>
<path fill="none" stroke="#ffff00" stroke-width="2" d="M192,-64C256.2284,-64 272.2716,-62 336.5,-62"/>
<path fill="none" stroke="#000000" stroke-width="2" d="M192,-66C256.4758,-65.9846 272.519,-63.9846 336.5,-64"/>
</g>
<!-- X1&#45;&#45;W1 -->
<g id="edge9" class="edge">
<title>X1:e&#45;&#45;W1:w</title>
<path fill="none" stroke="#000000" stroke-width="2" d="M192,-134C273.8022,-134 254.6978,-20 336.5,-20"/>
</g>
<!-- X2 -->
<g id="node2" class="node">
<title>X2</title>
<polygon fill="#ffffff" stroke="transparent" points="951,-193 759,-193 759,-55 951,-55 951,-193"/>
<polygon fill="none" stroke="#000000" points="759,-170 759,-193 951,-193 951,-170 759,-170"/>
<text text-anchor="start" x="845.5" y="-177.8" font-family="arial" font-size="14.00" fill="#000000">X2</text>
<polygon fill="none" stroke="#000000" points="759,-147 759,-170 858,-170 858,-147 759,-147"/>
<text text-anchor="start" x="763" y="-154.8" font-family="arial" font-size="14.00" fill="#000000">Molex KK 254</text>
<polygon fill="none" stroke="#000000" points="858,-147 858,-170 910,-170 910,-147 858,-147"/>
<text text-anchor="start" x="862" y="-154.8" font-family="arial" font-size="14.00" fill="#000000">female</text>
<polygon fill="none" stroke="#000000" points="910,-147 910,-170 951,-170 951,-147 910,-147"/>
<text text-anchor="start" x="914" y="-154.8" font-family="arial" font-size="14.00" fill="#000000">4&#45;pin</text>
<polygon fill="none" stroke="#000000" points="759,-124 759,-147 843,-147 843,-124 759,-124"/>
<text text-anchor="start" x="796.5" y="-131.8" font-family="arial" font-size="14.00" fill="#000000">1</text>
<polygon fill="none" stroke="#000000" points="843,-124 843,-147 951,-147 951,-124 843,-124"/>
<text text-anchor="start" x="880.5" y="-131.8" font-family="arial" font-size="14.00" fill="#000000">GND</text>
<polygon fill="none" stroke="#000000" points="759,-101 759,-124 843,-124 843,-101 759,-101"/>
<text text-anchor="start" x="796.5" y="-108.8" font-family="arial" font-size="14.00" fill="#000000">2</text>
<polygon fill="none" stroke="#000000" points="843,-101 843,-124 951,-124 951,-101 843,-101"/>
<text text-anchor="start" x="881.5" y="-108.8" font-family="arial" font-size="14.00" fill="#000000">VCC</text>
<polygon fill="none" stroke="#000000" points="759,-78 759,-101 843,-101 843,-78 759,-78"/>
<text text-anchor="start" x="796.5" y="-85.8" font-family="arial" font-size="14.00" fill="#000000">3</text>
<polygon fill="none" stroke="#000000" points="843,-78 843,-101 951,-101 951,-78 843,-78"/>
<text text-anchor="start" x="886.5" y="-85.8" font-family="arial" font-size="14.00" fill="#000000">RX</text>
<polygon fill="none" stroke="#000000" points="759,-55 759,-78 843,-78 843,-55 759,-55"/>
<text text-anchor="start" x="796.5" y="-62.8" font-family="arial" font-size="14.00" fill="#000000">4</text>
<polygon fill="none" stroke="#000000" points="843,-55 843,-78 951,-78 951,-55 843,-55"/>
<text text-anchor="start" x="887.5" y="-62.8" font-family="arial" font-size="14.00" fill="#000000">TX</text>
</g>
<!-- W1&#45;&#45;X2 -->
<g id="edge2" class="edge">
<title>W1:e&#45;&#45;X2:w</title>
<path fill="none" stroke="#000000" stroke-width="2" d="M615,-135C678.8768,-135.0039 694.8737,-134.0039 759,-134"/>
<path fill="none" stroke="#895956" stroke-width="2" d="M615,-137C679.0015,-137 694.9985,-136 759,-136"/>
<path fill="none" stroke="#000000" stroke-width="2" d="M615,-139C679.1263,-138.9961 695.1232,-137.9961 759,-138"/>
</g>
<!-- W1&#45;&#45;X2 -->
<g id="edge4" class="edge">
<title>W1:e&#45;&#45;X2:w</title>
<path fill="none" stroke="#000000" stroke-width="2" d="M615,-110C679,-110 695,-110 759,-110"/>
<path fill="none" stroke="#ff0000" stroke-width="2" d="M615,-112C679,-112 695,-112 759,-112"/>
<path fill="none" stroke="#000000" stroke-width="2" d="M615,-114C679,-114 695,-114 759,-114"/>
</g>
<!-- W1&#45;&#45;X2 -->
<g id="edge6" class="edge">
<title>W1:e&#45;&#45;X2:w</title>
<path fill="none" stroke="#000000" stroke-width="2" d="M615,-85C678.0365,-85.8559 692.6826,-64.8559 759,-64"/>
<path fill="none" stroke="#ff8000" stroke-width="2" d="M615,-87C679.677,-87 694.323,-66 759,-66"/>
<path fill="none" stroke="#000000" stroke-width="2" d="M615,-89C681.3174,-88.1441 695.9635,-67.1441 759,-68"/>
</g>
<!-- W1&#45;&#45;X2 -->
<g id="edge8" class="edge">
<title>W1:e&#45;&#45;X2:w</title>
<path fill="none" stroke="#000000" stroke-width="2" d="M615,-60C681.897,-61.0914 695.6664,-88.0914 759,-87"/>
<path fill="none" stroke="#ffff00" stroke-width="2" d="M615,-62C680.1153,-62 693.8847,-89 759,-89"/>
<path fill="none" stroke="#000000" stroke-width="2" d="M615,-64C678.3336,-62.9086 692.103,-89.9086 759,-91"/>
</g>
</g>
</svg>
