<?xml version="1.0" encoding="UTF-8" standalone="no"?>
<!DOCTYPE svg PUBLIC "-//W3C//DTD SVG 1.1//EN"
 "http://www.w3.org/Graphics/SVG/1.1/DTD/svg11.dtd">
<!-- Generated by graphviz version 2.40.1 (20161225.0304)
 -->
<!-- Title: %3 Pages: 1 -->
<svg width="888pt" height="332pt"
 viewBox="0.00 0.00 888.00 332.00" xmlns="http://www.w3.org/2000/svg" xmlns:xlink="http://www.w3.org/1999/xlink">
<g id="graph0" class="graph" transform="scale(1 1) rotate(0) translate(4 328)">
<title>%3</title>
<polygon fill="#ffffff" stroke="transparent" points="-4,4 -4,-328 884,-328 884,4 -4,4"/>
<!-- X1 -->
<g id="node1" class="node">
<title>X1</title>
<polygon fill="#ffffff" stroke="transparent" points="188,-208 0,-208 0,-116 188,-116 188,-208"/>
<polygon fill="none" stroke="#000000" points="0,-185 0,-208 188,-208 188,-185 0,-185"/>
<text text-anchor="start" x="84.5" y="-192.8" font-family="arial" font-size="14.00" fill="#000000">X1</text>
<polygon fill="none" stroke="#000000" points="0,-162 0,-185 107,-185 107,-162 0,-162"/>
<text text-anchor="start" x="4" y="-169.8" font-family="arial" font-size="14.00" fill="#000000">Molex Micro&#45;Fit</text>
<polygon fill="none" stroke="#000000" points="107,-162 107,-185 147,-185 147,-162 107,-162"/>
<text text-anchor="start" x="111" y="-169.8" font-family="arial" font-size="14.00" fill="#000000">male</text>
<polygon fill="none" stroke="#000000" points="147,-162 147,-185 188,-185 188,-162 147,-162"/>
<text text-anchor="start" x="151" y="-169.8" font-family="arial" font-size="14.00" fill="#000000">2&#45;pin</text>
<polygon fill="none" stroke="#000000" points="0,-139 0,-162 106,-162 106,-139 0,-139"/>
<text text-anchor="start" x="36.5" y="-146.8" font-family="arial" font-size="14.00" fill="#000000">GND</text>
<polygon fill="none" stroke="#000000" points="106,-139 106,-162 188,-162 188,-139 106,-139"/>
<text text-anchor="start" x="142.5" y="-146.8" font-family="arial" font-size="14.00" fill="#000000">1</text>
<polygon fill="none" stroke="#000000" points="0,-116 0,-139 106,-139 106,-116 0,-116"/>
<text text-anchor="start" x="37.5" y="-123.8" font-family="arial" font-size="14.00" fill="#000000">VCC</text>
<polygon fill="none" stroke="#000000" points="106,-116 106,-139 188,-139 188,-116 106,-116"/>
<text text-anchor="start" x="142.5" y="-123.8" font-family="arial" font-size="14.00" fill="#000000">2</text>
</g>
<!-- W1 -->
<g id="node5" class="node">
<title>W1</title>
<polygon fill="#ffffff" stroke="#000000" stroke-dasharray="5,2" points="536,-288 332,-288 332,-54 536,-54 536,-288"/>
<polygon fill="none" stroke="#000000" points="332,-265 332,-288 536,-288 536,-265 332,-265"/>
<text text-anchor="start" x="423" y="-272.8" font-family="arial" font-size="14.00" fill="#000000">W1</text>
<polygon fill="none" stroke="#000000" points="332,-242 332,-265 356,-265 356,-242 332,-242"/>
<text text-anchor="start" x="336" y="-249.8" font-family="arial" font-size="14.00" fill="#000000">6x</text>
<polygon fill="none" stroke="#000000" points="356,-242 356,-265 491,-265 491,-242 356,-242"/>
<text text-anchor="start" x="360" y="-249.8" font-family="arial" font-size="14.00" fill="#000000">0.25 mm² (24 AWG)</text>
<polygon fill="none" stroke="#000000" points="491,-242 491,-265 536,-265 536,-242 491,-242"/>
<text text-anchor="start" x="495" y="-249.8" font-family="arial" font-size="14.00" fill="#000000">0.2 m</text>
<text text-anchor="start" x="365.5" y="-228.8" font-family="arial" font-size="14.00" fill="#000000"> </text>
<text text-anchor="start" x="352" y="-209.8" font-family="arial" font-size="14.00" fill="#000000">X1:1</text>
<text text-anchor="start" x="424" y="-209.8" font-family="arial" font-size="14.00" fill="#000000">BK</text>
<text text-anchor="start" x="485" y="-209.8" font-family="arial" font-size="14.00" fill="#000000">X2:1</text>
<polygon fill="#000000" stroke="transparent" points="332,-202 332,-204 536,-204 536,-202 332,-202"/>
<polygon fill="#000000" stroke="transparent" points="332,-200 332,-202 536,-202 536,-200 332,-200"/>
<polygon fill="#000000" stroke="transparent" points="332,-198 332,-200 536,-200 536,-198 332,-198"/>
<text text-anchor="start" x="352" y="-184.8" font-family="arial" font-size="14.00" fill="#000000">X1:2</text>
<text text-anchor="start" x="423" y="-184.8" font-family="arial" font-size="14.00" fill="#000000">RD</text>
<text text-anchor="start" x="485" y="-184.8" font-family="arial" font-size="14.00" fill="#000000">X2:2</text>
<polygon fill="#000000" stroke="transparent" points="332,-177 332,-179 536,-179 536,-177 332,-177"/>
<polygon fill="#ff0000" stroke="transparent" points="332,-175 332,-177 536,-177 536,-175 332,-175"/>
<polygon fill="#000000" stroke="transparent" points="332,-173 332,-175 536,-175 536,-173 332,-173"/>
<text text-anchor="start" x="352" y="-159.8" font-family="arial" font-size="14.00" fill="#000000">X1:1</text>
<text text-anchor="start" x="424" y="-159.8" font-family="arial" font-size="14.00" fill="#000000">BK</text>
<text text-anchor="start" x="485" y="-159.8" font-family="arial" font-size="14.00" fill="#000000">X3:1</text>
<polygon fill="#000000" stroke="transparent" points="332,-152 332,-154 536,-154 536,-152 332,-152"/>
<polygon fill="#000000" stroke="transparent" points="332,-150 332,-152 536,-152 536,-150 332,-150"/>
<polygon fill="#000000" stroke="transparent" points="332,-148 332,-150 536,-150 536,-148 332,-148"/>
<text text-anchor="start" x="352" y="-134.8" font-family="arial" font-size="14.00" fill="#000000">X1:2</text>
<text text-anchor="start" x="423" y="-134.8" font-family="arial" font-size="14.00" fill="#000000">RD</text>
<text text-anchor="start" x="485" y="-134.8" font-family="arial" font-size="14.00" fill="#000000">X3:2</text>
<polygon fill="#000000" stroke="transparent" points="332,-127 332,-129 536,-129 536,-127 332,-127"/>
<polygon fill="#ff0000" stroke="transparent" points="332,-125 332,-127 536,-127 536,-125 332,-125"/>
<polygon fill="#000000" stroke="transparent" points="332,-123 332,-125 536,-125 536,-123 332,-123"/>
<text text-anchor="start" x="352" y="-109.8" font-family="arial" font-size="14.00" fill="#000000">X1:1</text>
<text text-anchor="start" x="424" y="-109.8" font-family="arial" font-size="14.00" fill="#000000">BK</text>
<text text-anchor="start" x="485" y="-109.8" font-family="arial" font-size="14.00" fill="#000000">X4:1</text>
<polygon fill="#000000" stroke="transparent" points="332,-102 332,-104 536,-104 536,-102 332,-102"/>
<polygon fill="#000000" stroke="transparent" points="332,-100 332,-102 536,-102 536,-100 332,-100"/>
<polygon fill="#000000" stroke="transparent" points="332,-98 332,-100 536,-100 536,-98 332,-98"/>
<text text-anchor="start" x="352" y="-84.8" font-family="arial" font-size="14.00" fill="#000000">X1:2</text>
<text text-anchor="start" x="423" y="-84.8" font-family="arial" font-size="14.00" fill="#000000">RD</text>
<text text-anchor="start" x="485" y="-84.8" font-family="arial" font-size="14.00" fill="#000000">X4:2</text>
<polygon fill="#000000" stroke="transparent" points="332,-77 332,-79 536,-79 536,-77 332,-77"/>
<polygon fill="#ff0000" stroke="transparent" points="332,-75 332,-77 536,-77 536,-75 332,-75"/>
<polygon fill="#000000" stroke="transparent" points="332,-73 332,-75 536,-75 536,-73 332,-73"/>
<text text-anchor="start" x="365.5" y="-59.8" font-family="arial" font-size="14.00" fill="#000000"> </text>
</g>
<!-- X1&#45;&#45;W1 -->
<g id="edge1" class="edge">
<title>X1:e&#45;&#45;W1:w</title>
<path fill="none" stroke="#000000" stroke-width="2" d="M188,-148C257.8699,-149.6822 266.0792,-200.6822 332,-199"/>
<path fill="none" stroke="#000000" stroke-width="2" d="M188,-150C255.8953,-150 264.1047,-201 332,-201"/>
<path fill="none" stroke="#000000" stroke-width="2" d="M188,-152C253.9208,-150.3178 262.1301,-201.3178 332,-203"/>
</g>
<!-- X1&#45;&#45;W1 -->
<g id="edge3" class="edge">
<title>X1:e&#45;&#45;W1:w</title>
<path fill="none" stroke="#000000" stroke-width="2" d="M188,-125C257.5723,-126.6468 266.3648,-175.6468 332,-174"/>
<path fill="none" stroke="#ff0000" stroke-width="2" d="M188,-127C255.6038,-127 264.3962,-176 332,-176"/>
<path fill="none" stroke="#000000" stroke-width="2" d="M188,-129C253.6352,-127.3532 262.4277,-176.3532 332,-178"/>
</g>
<!-- X1&#45;&#45;W1 -->
<g id="edge5" class="edge">
<title>X1:e&#45;&#45;W1:w</title>
<path fill="none" stroke="#000000" stroke-width="2" d="M188,-148C252.1263,-148.0039 268.1232,-149.0039 332,-149"/>
<path fill="none" stroke="#000000" stroke-width="2" d="M188,-150C252.0015,-150 267.9985,-151 332,-151"/>
<path fill="none" stroke="#000000" stroke-width="2" d="M188,-152C251.8768,-151.9961 267.8737,-152.9961 332,-153"/>
</g>
<!-- X1&#45;&#45;W1 -->
<g id="edge7" class="edge">
<title>X1:e&#45;&#45;W1:w</title>
<path fill="none" stroke="#000000" stroke-width="2" d="M188,-125C251.8768,-125.0039 267.8737,-124.0039 332,-124"/>
<path fill="none" stroke="#ff0000" stroke-width="2" d="M188,-127C252.0015,-127 267.9985,-126 332,-126"/>
<path fill="none" stroke="#000000" stroke-width="2" d="M188,-129C252.1263,-128.9961 268.1232,-127.9961 332,-128"/>
</g>
<!-- X1&#45;&#45;W1 -->
<g id="edge9" class="edge">
<title>X1:e&#45;&#45;W1:w</title>
<path fill="none" stroke="#000000" stroke-width="2" d="M188,-148C253.6352,-149.6468 262.4277,-100.6468 332,-99"/>
<path fill="none" stroke="#000000" stroke-width="2" d="M188,-150C255.6038,-150 264.3962,-101 332,-101"/>
<path fill="none" stroke="#000000" stroke-width="2" d="M188,-152C257.5723,-150.3532 266.3648,-101.3532 332,-103"/>
</g>
<!-- X1&#45;&#45;W1 -->
<g id="edge11" class="edge">
<title>X1:e&#45;&#45;W1:w</title>
<path fill="none" stroke="#000000" stroke-width="2" d="M188,-125C253.9208,-126.6822 262.1301,-75.6822 332,-74"/>
<path fill="none" stroke="#ff0000" stroke-width="2" d="M188,-127C255.8953,-127 264.1047,-76 332,-76"/>
<path fill="none" stroke="#000000" stroke-width="2" d="M188,-129C257.8699,-127.3178 266.0792,-76.3178 332,-78"/>
</g>
<!-- X2 -->
<g id="node2" class="node">
<title>X2</title>
<polygon fill="#ffffff" stroke="transparent" points="880,-324 680,-324 680,-232 880,-232 880,-324"/>
<polygon fill="none" stroke="#000000" points="680,-301 680,-324 880,-324 880,-301 680,-301"/>
<text text-anchor="start" x="770.5" y="-308.8" font-family="arial" font-size="14.00" fill="#000000">X2</text>
<polygon fill="none" stroke="#000000" points="680,-278 680,-301 787,-301 787,-278 680,-278"/>
<text text-anchor="start" x="684" y="-285.8" font-family="arial" font-size="14.00" fill="#000000">Molex Micro&#45;Fit</text>
<polygon fill="none" stroke="#000000" points="787,-278 787,-301 839,-301 839,-278 787,-278"/>
<text text-anchor="start" x="791" y="-285.8" font-family="arial" font-size="14.00" fill="#000000">female</text>
<polygon fill="none" stroke="#000000" points="839,-278 839,-301 880,-301 880,-278 839,-278"/>
<text text-anchor="start" x="843" y="-285.8" font-family="arial" font-size="14.00" fill="#000000">2&#45;pin</text>
<polygon fill="none" stroke="#000000" points="680,-255 680,-278 768,-278 768,-255 680,-255"/>
<text text-anchor="start" x="719.5" y="-262.8" font-family="arial" font-size="14.00" fill="#000000">1</text>
<polygon fill="none" stroke="#000000" points="768,-255 768,-278 880,-278 880,-255 768,-255"/>
<text text-anchor="start" x="807.5" y="-262.8" font-family="arial" font-size="14.00" fill="#000000">GND</text>
<polygon fill="none" stroke="#000000" points="680,-232 680,-255 768,-255 768,-232 680,-232"/>
<text text-anchor="start" x="719.5" y="-239.8" font-family="arial" font-size="14.00" fill="#000000">2</text>
<polygon fill="none" stroke="#000000" points="768,-232 768,-255 880,-255 880,-232 768,-232"/>
<text text-anchor="start" x="808.5" y="-239.8" font-family="arial" font-size="14.00" fill="#000000">VCC</text>
</g>
<!-- X3 -->
<g id="node3" class="node">
<title>X3</title>
<polygon fill="#ffffff" stroke="transparent" points="880,-208 680,-208 680,-116 880,-116 880,-208"/>
<polygon fill="none" stroke="#000000" points="680,-185 680,-208 880,-208 880,-185 680,-185"/>
<text text-anchor="start" x="770.5" y="-192.8" font-family="arial" font-size="14.00" fill="#000000">X3</text>
<polygon fill="none" stroke="#000000" points="680,-162 680,-185 787,-185 787,-162 680,-162"/>
<text text-anchor="start" x="684" y="-169.8" font-family="arial" font-size="14.00" fill="#000000">Molex Micro&#45;Fit</text>
<polygon fill="none" stroke="#000000" points="787,-162 787,-185 839,-185 839,-162 787,-162"/>
<text text-anchor="start" x="791" y="-169.8" font-family="arial" font-size="14.00" fill="#000000">female</text>
<polygon fill="none" stroke="#000000" points="839,-162 839,-185 880,-185 880,-162 839,-162"/>
<text text-anchor="start" x="843" y="-169.8" font-family="arial" font-size="14.00" fill="#000000">2&#45;pin</text>
<polygon fill="none" stroke="#000000" points="680,-139 680,-162 768,-162 768,-139 680,-139"/>
<text text-anchor="start" x="719.5" y="-146.8" font-family="arial" font-size="14.00" fill="#000000">1</text>
<polygon fill="none" stroke="#000000" points="768,-139 768,-162 880,-162 880,-139 768,-139"/>
<text text-anchor="start" x="807.5" y="-146.8" font-family="arial" font-size="14.00" fill="#000000">GND</text>
<polygon fill="none" stroke="#000000" points="680,-116 680,-139 768,-139 768,-116 680,-116"/>
<text text-anchor="start" x="719.5" y="-123.8" font-family="arial" font-size="14.00" fill="#000000">2</text>
<polygon fill="none" stroke="#000000" points="768,-116 768,-139 880,-139 880,-116 768,-116"/>
<text text-anchor="start" x="808.5" y="-123.8" font-family="arial" font-size="14.00" fill="#000000">VCC</text>
</g>
<!-- X4 -->
<g id="node4" class="node">
<title>X4</title>
<polygon fill="#ffffff" stroke="transparent" points="880,-92 680,-92 680,0 880,0 880,-92"/>
<polygon fill="none" stroke="#000000" points="680,-69 680,-92 880,-92 880,-69 680,-69"/>
<text text-anchor="start" x="770.5" y="-76.8" font-family="arial" font-size="14.00" fill="#000000">X4</text>
<polygon fill="none" stroke="#000000" points="680,-46 680,-69 787,-69 787,-46 680,-46"/>
<text text-anchor="start" x="684" y="-53.8" font-family="arial" font-size="14.00" fill="#000000">Molex Micro&#45;Fit</text>
<polygon fill="none" stroke="#000000" points="787,-46 787,-69 839,-69 839,-46 787,-46"/>
<text text-anchor="start" x="791" y="-53.8" font-family="arial" font-size="14.00" fill="#000000">female</text>
<polygon fill="none" stroke="#000000" points="839,-46 839,-69 880,-69 880,-46 839,-46"/>
<text text-anchor="start" x="843" y="-53.8" font-family="arial" font-size="14.00" fill="#000000">2&#45;pin</text>
<polygon fill="none" stroke="#000000" points="680,-23 680,-46 768,-46 768,-23 680,-23"/>
<text text-anchor="start" x="719.5" y="-30.8" font-family="arial" font-size="14.00" fill="#000000">1</text>
<polygon fill="none" stroke="#000000" points="768,-23 768,-46 880,-46 880,-23 768,-23"/>
<text text-anchor="start" x="807.5" y="-30.8" font-family="arial" font-size="14.00" fill="#000000">GND</text>
<polygon fill="none" stroke="#000000" points="680,0 680,-23 768,-23 768,0 680,0"/>
<text text-anchor="start" x="719.5" y="-7.8" font-family="arial" font-size="14.00" fill="#000000">2</text>
<polygon fill="none" stroke="#000000" points="768,0 768,-23 880,-23 880,0 768,0"/>
<text text-anchor="start" x="808.5" y="-7.8" font-family="arial" font-size="14.00" fill="#000000">VCC</text>
</g>
<!-- W1&#45;&#45;X2 -->
<g id="edge2" class="edge">
<title>W1:e&#45;&#45;X2:w</title>
<path fill="none" stroke="#000000" stroke-width="2" d="M536,-199C608.215,-200.8905 611.779,-265.8905 680,-264"/>
<path fill="none" stroke="#000000" stroke-width="2" d="M536,-201C606.218,-201 609.782,-266 680,-266"/>
<path fill="none" stroke="#000000" stroke-width="2" d="M536,-203C604.221,-201.1095 607.785,-266.1095 680,-268"/>
</g>
<!-- W1&#45;&#45;X2 -->
<g id="edge4" class="edge">
<title>W1:e&#45;&#45;X2:w</title>
<path fill="none" stroke="#000000" stroke-width="2" d="M536,-174C608.5866,-175.9158 611.4099,-242.9158 680,-241"/>
<path fill="none" stroke="#ff0000" stroke-width="2" d="M536,-176C606.5884,-176 609.4116,-243 680,-243"/>
<path fill="none" stroke="#000000" stroke-width="2" d="M536,-178C604.5901,-176.0842 607.4134,-243.0842 680,-245"/>
</g>
<!-- W1&#45;&#45;X3 -->
<g id="edge6" class="edge">
<title>W1:e&#45;&#45;X3:w</title>
<path fill="none" stroke="#000000" stroke-width="2" d="M536,-149C599.8768,-149.0039 615.8737,-148.0039 680,-148"/>
<path fill="none" stroke="#000000" stroke-width="2" d="M536,-151C600.0015,-151 615.9985,-150 680,-150"/>
<path fill="none" stroke="#000000" stroke-width="2" d="M536,-153C600.1263,-152.9961 616.1232,-151.9961 680,-152"/>
</g>
<!-- W1&#45;&#45;X3 -->
<g id="edge8" class="edge">
<title>W1:e&#45;&#45;X3:w</title>
<path fill="none" stroke="#000000" stroke-width="2" d="M536,-124C600.1263,-124.0039 616.1232,-125.0039 680,-125"/>
<path fill="none" stroke="#ff0000" stroke-width="2" d="M536,-126C600.0015,-126 615.9985,-127 680,-127"/>
<path fill="none" stroke="#000000" stroke-width="2" d="M536,-128C599.8768,-127.9961 615.8737,-128.9961 680,-129"/>
</g>
<!-- W1&#45;&#45;X4 -->
<g id="edge10" class="edge">
<title>W1:e&#45;&#45;X4:w</title>
<path fill="none" stroke="#000000" stroke-width="2" d="M536,-99C604.5901,-100.9158 607.4134,-33.9158 680,-32"/>
<path fill="none" stroke="#000000" stroke-width="2" d="M536,-101C606.5884,-101 609.4116,-34 680,-34"/>
<path fill="none" stroke="#000000" stroke-width="2" d="M536,-103C608.5866,-101.0842 611.4099,-34.0842 680,-36"/>
</g>
<!-- W1&#45;&#45;X4 -->
<g id="edge12" class="edge">
<title>W1:e&#45;&#45;X4:w</title>
<path fill="none" stroke="#000000" stroke-width="2" d="M536,-74C604.221,-75.8905 607.785,-10.8905 680,-9"/>
<path fill="none" stroke="#ff0000" stroke-width="2" d="M536,-76C606.218,-76 609.782,-11 680,-11"/>
<path fill="none" stroke="#000000" stroke-width="2" d="M536,-78C608.215,-76.1095 611.779,-11.1095 680,-13"/>
</g>
</g>
</svg>
