<?xml version="1.0" encoding="UTF-8" standalone="no"?>
<!DOCTYPE svg PUBLIC "-//W3C//DTD SVG 1.1//EN"
 "http://www.w3.org/Graphics/SVG/1.1/DTD/svg11.dtd">
<!-- Generated by graphviz version 2.40.1 (20161225.0304)
 -->
<!-- Title: %3 Pages: 1 -->
<svg width="747pt" height="1158pt"
 viewBox="0.00 0.00 747.00 1158.00" xmlns="http://www.w3.org/2000/svg" xmlns:xlink="http://www.w3.org/1999/xlink">
<g id="graph0" class="graph" transform="scale(1 1) rotate(0) translate(4 1154)">
<title>%3</title>
<polygon fill="#ffffff" stroke="transparent" points="-4,4 -4,-1154 743,-1154 743,4 -4,4"/>
<!-- X1 -->
<g id="node1" class="node">
<title>X1</title>
<polygon fill="#ffffff" stroke="transparent" points="139,-732.5 0,-732.5 0,-387.5 139,-387.5 139,-732.5"/>
<polygon fill="none" stroke="#000000" points=".5,-709 .5,-732 139.5,-732 139.5,-709 .5,-709"/>
<text text-anchor="start" x="60.5" y="-716.8" font-family="arial" font-size="14.00" fill="#000000">X1</text>
<polygon fill="none" stroke="#000000" points=".5,-686 .5,-709 50.5,-709 50.5,-686 .5,-686"/>
<text text-anchor="start" x="4.5" y="-693.8" font-family="arial" font-size="14.00" fill="#000000">D&#45;Sub</text>
<polygon fill="none" stroke="#000000" points="50.5,-686 50.5,-709 90.5,-709 90.5,-686 50.5,-686"/>
<text text-anchor="start" x="54.5" y="-693.8" font-family="arial" font-size="14.00" fill="#000000">male</text>
<polygon fill="none" stroke="#000000" points="90.5,-686 90.5,-709 139.5,-709 139.5,-686 90.5,-686"/>
<text text-anchor="start" x="94.5" y="-693.8" font-family="arial" font-size="14.00" fill="#000000">25&#45;pin</text>
<polygon fill="none" stroke="#000000" points=".5,-663 .5,-686 104.5,-686 104.5,-663 .5,-663"/>
<text text-anchor="start" x="10" y="-670.8" font-family="arial" font-size="14.00" fill="#000000">SENSE_P_1</text>
<polygon fill="none" stroke="#000000" points="104.5,-663 104.5,-686 139.5,-686 139.5,-663 104.5,-663"/>
<text text-anchor="start" x="117.5" y="-670.8" font-family="arial" font-size="14.00" fill="#000000">1</text>
<polygon fill="none" stroke="#000000" points=".5,-640 .5,-663 104.5,-663 104.5,-640 .5,-640"/>
<text text-anchor="start" x="10" y="-647.8" font-family="arial" font-size="14.00" fill="#000000">SENSE_N_1</text>
<polygon fill="none" stroke="#000000" points="104.5,-640 104.5,-663 139.5,-663 139.5,-640 104.5,-640"/>
<text text-anchor="start" x="113.5" y="-647.8" font-family="arial" font-size="14.00" fill="#000000">14</text>
<polygon fill="none" stroke="#000000" points=".5,-617 .5,-640 104.5,-640 104.5,-617 .5,-617"/>
<text text-anchor="start" x="10" y="-624.8" font-family="arial" font-size="14.00" fill="#000000">SENSE_P_2</text>
<polygon fill="none" stroke="#000000" points="104.5,-617 104.5,-640 139.5,-640 139.5,-617 104.5,-617"/>
<text text-anchor="start" x="117.5" y="-624.8" font-family="arial" font-size="14.00" fill="#000000">3</text>
<polygon fill="none" stroke="#000000" points=".5,-594 .5,-617 104.5,-617 104.5,-594 .5,-594"/>
<text text-anchor="start" x="10" y="-601.8" font-family="arial" font-size="14.00" fill="#000000">SENSE_N_2</text>
<polygon fill="none" stroke="#000000" points="104.5,-594 104.5,-617 139.5,-617 139.5,-594 104.5,-594"/>
<text text-anchor="start" x="113.5" y="-601.8" font-family="arial" font-size="14.00" fill="#000000">16</text>
<polygon fill="none" stroke="#000000" points=".5,-571 .5,-594 104.5,-594 104.5,-571 .5,-571"/>
<text text-anchor="start" x="10" y="-578.8" font-family="arial" font-size="14.00" fill="#000000">SENSE_P_3</text>
<polygon fill="none" stroke="#000000" points="104.5,-571 104.5,-594 139.5,-594 139.5,-571 104.5,-571"/>
<text text-anchor="start" x="117.5" y="-578.8" font-family="arial" font-size="14.00" fill="#000000">5</text>
<polygon fill="none" stroke="#000000" points=".5,-548 .5,-571 104.5,-571 104.5,-548 .5,-548"/>
<text text-anchor="start" x="10" y="-555.8" font-family="arial" font-size="14.00" fill="#000000">SENSE_N_3</text>
<polygon fill="none" stroke="#000000" points="104.5,-548 104.5,-571 139.5,-571 139.5,-548 104.5,-548"/>
<text text-anchor="start" x="113.5" y="-555.8" font-family="arial" font-size="14.00" fill="#000000">18</text>
<polygon fill="none" stroke="#000000" points=".5,-525 .5,-548 104.5,-548 104.5,-525 .5,-525"/>
<text text-anchor="start" x="10" y="-532.8" font-family="arial" font-size="14.00" fill="#000000">SENSE_P_4</text>
<polygon fill="none" stroke="#000000" points="104.5,-525 104.5,-548 139.5,-548 139.5,-525 104.5,-525"/>
<text text-anchor="start" x="117.5" y="-532.8" font-family="arial" font-size="14.00" fill="#000000">7</text>
<polygon fill="none" stroke="#000000" points=".5,-502 .5,-525 104.5,-525 104.5,-502 .5,-502"/>
<text text-anchor="start" x="10" y="-509.8" font-family="arial" font-size="14.00" fill="#000000">SENSE_N_4</text>
<polygon fill="none" stroke="#000000" points="104.5,-502 104.5,-525 139.5,-525 139.5,-502 104.5,-502"/>
<text text-anchor="start" x="113.5" y="-509.8" font-family="arial" font-size="14.00" fill="#000000">20</text>
<polygon fill="none" stroke="#000000" points=".5,-479 .5,-502 104.5,-502 104.5,-479 .5,-479"/>
<text text-anchor="start" x="10" y="-486.8" font-family="arial" font-size="14.00" fill="#000000">SENSE_P_5</text>
<polygon fill="none" stroke="#000000" points="104.5,-479 104.5,-502 139.5,-502 139.5,-479 104.5,-479"/>
<text text-anchor="start" x="117.5" y="-486.8" font-family="arial" font-size="14.00" fill="#000000">9</text>
<polygon fill="none" stroke="#000000" points=".5,-456 .5,-479 104.5,-479 104.5,-456 .5,-456"/>
<text text-anchor="start" x="10" y="-463.8" font-family="arial" font-size="14.00" fill="#000000">SENSE_N_5</text>
<polygon fill="none" stroke="#000000" points="104.5,-456 104.5,-479 139.5,-479 139.5,-456 104.5,-456"/>
<text text-anchor="start" x="113.5" y="-463.8" font-family="arial" font-size="14.00" fill="#000000">22</text>
<polygon fill="none" stroke="#000000" points=".5,-433 .5,-456 104.5,-456 104.5,-433 .5,-433"/>
<text text-anchor="start" x="10" y="-440.8" font-family="arial" font-size="14.00" fill="#000000">SENSE_P_6</text>
<polygon fill="none" stroke="#000000" points="104.5,-433 104.5,-456 139.5,-456 139.5,-433 104.5,-433"/>
<text text-anchor="start" x="114" y="-440.8" font-family="arial" font-size="14.00" fill="#000000">11</text>
<polygon fill="none" stroke="#000000" points=".5,-410 .5,-433 104.5,-433 104.5,-410 .5,-410"/>
<text text-anchor="start" x="10" y="-417.8" font-family="arial" font-size="14.00" fill="#000000">SENSE_N_6</text>
<polygon fill="none" stroke="#000000" points="104.5,-410 104.5,-433 139.5,-433 139.5,-410 104.5,-410"/>
<text text-anchor="start" x="113.5" y="-417.8" font-family="arial" font-size="14.00" fill="#000000">24</text>
<polygon fill="none" stroke="#000000" points=".5,-387 .5,-410 104.5,-410 104.5,-387 .5,-387"/>
<text text-anchor="start" x="36" y="-394.8" font-family="arial" font-size="14.00" fill="#000000">GND</text>
<polygon fill="none" stroke="#000000" points="104.5,-387 104.5,-410 139.5,-410 139.5,-387 104.5,-387"/>
<text text-anchor="start" x="113.5" y="-394.8" font-family="arial" font-size="14.00" fill="#000000">13</text>
</g>
<!-- W1 -->
<g id="node3" class="node">
<title>W1</title>
<polygon fill="none" stroke="#000000" points="460,-800 283,-800 283,-328 460,-328 460,-800"/>
<polygon fill="none" stroke="#000000" points="283.5,-777 283.5,-800 460.5,-800 460.5,-777 283.5,-777"/>
<text text-anchor="start" x="361" y="-784.8" font-family="arial" font-size="14.00" fill="#000000">W1</text>
<polygon fill="none" stroke="#000000" points="283.5,-754 283.5,-777 316.5,-777 316.5,-754 283.5,-754"/>
<text text-anchor="start" x="287.5" y="-761.8" font-family="arial" font-size="14.00" fill="#000000">12x</text>
<polygon fill="none" stroke="#000000" points="316.5,-754 316.5,-777 385.5,-777 385.5,-754 316.5,-754"/>
<text text-anchor="start" x="320.5" y="-761.8" font-family="arial" font-size="14.00" fill="#000000">0.25 mm²</text>
<polygon fill="none" stroke="#000000" points="385.5,-754 385.5,-777 415.5,-777 415.5,-754 385.5,-754"/>
<text text-anchor="start" x="389.5" y="-761.8" font-family="arial" font-size="14.00" fill="#000000">+ S</text>
<polygon fill="none" stroke="#000000" points="415.5,-754 415.5,-777 460.5,-777 460.5,-754 415.5,-754"/>
<text text-anchor="start" x="419.5" y="-761.8" font-family="arial" font-size="14.00" fill="#000000">0.2 m</text>
<text text-anchor="start" x="309.5" y="-740.8" font-family="arial" font-size="14.00" fill="#000000"> </text>
<text text-anchor="start" x="292" y="-721.8" font-family="arial" font-size="14.00" fill="#000000">X1:14</text>
<text text-anchor="start" x="356" y="-721.8" font-family="arial" font-size="14.00" fill="#000000">WH</text>
<text text-anchor="start" x="410" y="-721.8" font-family="arial" font-size="14.00" fill="#000000">X2:z2</text>
<polygon fill="#000000" stroke="transparent" points="283.5,-714 283.5,-716 460.5,-716 460.5,-714 283.5,-714"/>
<polygon fill="#ffffff" stroke="transparent" points="283.5,-712 283.5,-714 460.5,-714 460.5,-712 283.5,-712"/>
<polygon fill="#ffffff" stroke="transparent" points="283.5,-710 283.5,-712 460.5,-712 460.5,-710 283.5,-710"/>
<polygon fill="#ffffff" stroke="transparent" points="283.5,-708 283.5,-710 460.5,-710 460.5,-708 283.5,-708"/>
<polygon fill="#000000" stroke="transparent" points="283.5,-706 283.5,-708 460.5,-708 460.5,-706 283.5,-706"/>
<text text-anchor="start" x="296" y="-692.8" font-family="arial" font-size="14.00" fill="#000000">X1:1</text>
<text text-anchor="start" x="358" y="-692.8" font-family="arial" font-size="14.00" fill="#000000">BN</text>
<text text-anchor="start" x="409.5" y="-692.8" font-family="arial" font-size="14.00" fill="#000000">X2:d4</text>
<polygon fill="#000000" stroke="transparent" points="283.5,-685 283.5,-687 460.5,-687 460.5,-685 283.5,-685"/>
<polygon fill="#895956" stroke="transparent" points="283.5,-683 283.5,-685 460.5,-685 460.5,-683 283.5,-683"/>
<polygon fill="#895956" stroke="transparent" points="283.5,-681 283.5,-683 460.5,-683 460.5,-681 283.5,-681"/>
<polygon fill="#895956" stroke="transparent" points="283.5,-679 283.5,-681 460.5,-681 460.5,-679 283.5,-679"/>
<polygon fill="#000000" stroke="transparent" points="283.5,-677 283.5,-679 460.5,-679 460.5,-677 283.5,-677"/>
<text text-anchor="start" x="292" y="-663.8" font-family="arial" font-size="14.00" fill="#000000">X1:16</text>
<text text-anchor="start" x="357.5" y="-663.8" font-family="arial" font-size="14.00" fill="#000000">GN</text>
<text text-anchor="start" x="410" y="-663.8" font-family="arial" font-size="14.00" fill="#000000">X2:z8</text>
<polygon fill="#000000" stroke="transparent" points="283.5,-656 283.5,-658 460.5,-658 460.5,-656 283.5,-656"/>
<polygon fill="#00ff00" stroke="transparent" points="283.5,-654 283.5,-656 460.5,-656 460.5,-654 283.5,-654"/>
<polygon fill="#00ff00" stroke="transparent" points="283.5,-652 283.5,-654 460.5,-654 460.5,-652 283.5,-652"/>
<polygon fill="#00ff00" stroke="transparent" points="283.5,-650 283.5,-652 460.5,-652 460.5,-650 283.5,-650"/>
<polygon fill="#000000" stroke="transparent" points="283.5,-648 283.5,-650 460.5,-650 460.5,-648 283.5,-648"/>
<text text-anchor="start" x="296" y="-634.8" font-family="arial" font-size="14.00" fill="#000000">X1:3</text>
<text text-anchor="start" x="358.5" y="-634.8" font-family="arial" font-size="14.00" fill="#000000">YE</text>
<text text-anchor="start" x="405.5" y="-634.8" font-family="arial" font-size="14.00" fill="#000000">X2:d10</text>
<polygon fill="#000000" stroke="transparent" points="283.5,-627 283.5,-629 460.5,-629 460.5,-627 283.5,-627"/>
<polygon fill="#ffff00" stroke="transparent" points="283.5,-625 283.5,-627 460.5,-627 460.5,-625 283.5,-625"/>
<polygon fill="#ffff00" stroke="transparent" points="283.5,-623 283.5,-625 460.5,-625 460.5,-623 283.5,-623"/>
<polygon fill="#ffff00" stroke="transparent" points="283.5,-621 283.5,-623 460.5,-623 460.5,-621 283.5,-621"/>
<polygon fill="#000000" stroke="transparent" points="283.5,-619 283.5,-621 460.5,-621 460.5,-619 283.5,-619"/>
<text text-anchor="start" x="292" y="-605.8" font-family="arial" font-size="14.00" fill="#000000">X1:18</text>
<text text-anchor="start" x="357.5" y="-605.8" font-family="arial" font-size="14.00" fill="#000000">GY</text>
<text text-anchor="start" x="406" y="-605.8" font-family="arial" font-size="14.00" fill="#000000">X2:z14</text>
<polygon fill="#000000" stroke="transparent" points="283.5,-598 283.5,-600 460.5,-600 460.5,-598 283.5,-598"/>
<polygon fill="#999999" stroke="transparent" points="283.5,-596 283.5,-598 460.5,-598 460.5,-596 283.5,-596"/>
<polygon fill="#999999" stroke="transparent" points="283.5,-594 283.5,-596 460.5,-596 460.5,-594 283.5,-594"/>
<polygon fill="#999999" stroke="transparent" points="283.5,-592 283.5,-594 460.5,-594 460.5,-592 283.5,-592"/>
<polygon fill="#000000" stroke="transparent" points="283.5,-590 283.5,-592 460.5,-592 460.5,-590 283.5,-590"/>
<text text-anchor="start" x="296" y="-576.8" font-family="arial" font-size="14.00" fill="#000000">X1:5</text>
<text text-anchor="start" x="358.5" y="-576.8" font-family="arial" font-size="14.00" fill="#000000">PK</text>
<text text-anchor="start" x="405.5" y="-576.8" font-family="arial" font-size="14.00" fill="#000000">X2:d16</text>
<polygon fill="#000000" stroke="transparent" points="283.5,-569 283.5,-571 460.5,-571 460.5,-569 283.5,-569"/>
<polygon fill="#ff66cc" stroke="transparent" points="283.5,-567 283.5,-569 460.5,-569 460.5,-567 283.5,-567"/>
<polygon fill="#ff66cc" stroke="transparent" points="283.5,-565 283.5,-567 460.5,-567 460.5,-565 283.5,-565"/>
<polygon fill="#ff66cc" stroke="transparent" points="283.5,-563 283.5,-565 460.5,-565 460.5,-563 283.5,-563"/>
<polygon fill="#000000" stroke="transparent" points="283.5,-561 283.5,-563 460.5,-563 460.5,-561 283.5,-561"/>
<text text-anchor="start" x="292" y="-547.8" font-family="arial" font-size="14.00" fill="#000000">X1:20</text>
<text text-anchor="start" x="358" y="-547.8" font-family="arial" font-size="14.00" fill="#000000">BU</text>
<text text-anchor="start" x="406" y="-547.8" font-family="arial" font-size="14.00" fill="#000000">X2:z18</text>
<polygon fill="#000000" stroke="transparent" points="283.5,-540 283.5,-542 460.5,-542 460.5,-540 283.5,-540"/>
<polygon fill="#0066ff" stroke="transparent" points="283.5,-538 283.5,-540 460.5,-540 460.5,-538 283.5,-538"/>
<polygon fill="#0066ff" stroke="transparent" points="283.5,-536 283.5,-538 460.5,-538 460.5,-536 283.5,-536"/>
<polygon fill="#0066ff" stroke="transparent" points="283.5,-534 283.5,-536 460.5,-536 460.5,-534 283.5,-534"/>
<polygon fill="#000000" stroke="transparent" points="283.5,-532 283.5,-534 460.5,-534 460.5,-532 283.5,-532"/>
<text text-anchor="start" x="296" y="-518.8" font-family="arial" font-size="14.00" fill="#000000">X1:7</text>
<text text-anchor="start" x="357.5" y="-518.8" font-family="arial" font-size="14.00" fill="#000000">RD</text>
<text text-anchor="start" x="405.5" y="-518.8" font-family="arial" font-size="14.00" fill="#000000">X2:d20</text>
<polygon fill="#000000" stroke="transparent" points="283.5,-511 283.5,-513 460.5,-513 460.5,-511 283.5,-511"/>
<polygon fill="#ff0000" stroke="transparent" points="283.5,-509 283.5,-511 460.5,-511 460.5,-509 283.5,-509"/>
<polygon fill="#ff0000" stroke="transparent" points="283.5,-507 283.5,-509 460.5,-509 460.5,-507 283.5,-507"/>
<polygon fill="#ff0000" stroke="transparent" points="283.5,-505 283.5,-507 460.5,-507 460.5,-505 283.5,-505"/>
<polygon fill="#000000" stroke="transparent" points="283.5,-503 283.5,-505 460.5,-505 460.5,-503 283.5,-503"/>
<text text-anchor="start" x="292" y="-489.8" font-family="arial" font-size="14.00" fill="#000000">X1:22</text>
<text text-anchor="start" x="358.5" y="-489.8" font-family="arial" font-size="14.00" fill="#000000">BK</text>
<text text-anchor="start" x="406" y="-489.8" font-family="arial" font-size="14.00" fill="#000000">X2:z24</text>
<polygon fill="#000000" stroke="transparent" points="283.5,-482 283.5,-484 460.5,-484 460.5,-482 283.5,-482"/>
<polygon fill="#000000" stroke="transparent" points="283.5,-480 283.5,-482 460.5,-482 460.5,-480 283.5,-480"/>
<polygon fill="#000000" stroke="transparent" points="283.5,-478 283.5,-480 460.5,-480 460.5,-478 283.5,-478"/>
<polygon fill="#000000" stroke="transparent" points="283.5,-476 283.5,-478 460.5,-478 460.5,-476 283.5,-476"/>
<polygon fill="#000000" stroke="transparent" points="283.5,-474 283.5,-476 460.5,-476 460.5,-474 283.5,-474"/>
<text text-anchor="start" x="296" y="-460.8" font-family="arial" font-size="14.00" fill="#000000">X1:9</text>
<text text-anchor="start" x="359" y="-460.8" font-family="arial" font-size="14.00" fill="#000000">VT</text>
<text text-anchor="start" x="405.5" y="-460.8" font-family="arial" font-size="14.00" fill="#000000">X2:d26</text>
<polygon fill="#000000" stroke="transparent" points="283.5,-453 283.5,-455 460.5,-455 460.5,-453 283.5,-453"/>
<polygon fill="#8000ff" stroke="transparent" points="283.5,-451 283.5,-453 460.5,-453 460.5,-451 283.5,-451"/>
<polygon fill="#8000ff" stroke="transparent" points="283.5,-449 283.5,-451 460.5,-451 460.5,-449 283.5,-449"/>
<polygon fill="#8000ff" stroke="transparent" points="283.5,-447 283.5,-449 460.5,-449 460.5,-447 283.5,-447"/>
<polygon fill="#000000" stroke="transparent" points="283.5,-445 283.5,-447 460.5,-447 460.5,-445 283.5,-445"/>
<text text-anchor="start" x="292" y="-431.8" font-family="arial" font-size="14.00" fill="#000000">X1:24</text>
<text text-anchor="start" x="348" y="-431.8" font-family="arial" font-size="14.00" fill="#000000">GYPK</text>
<text text-anchor="start" x="406" y="-431.8" font-family="arial" font-size="14.00" fill="#000000">X2:z30</text>
<polygon fill="#000000" stroke="transparent" points="283.5,-424 283.5,-426 460.5,-426 460.5,-424 283.5,-424"/>
<polygon fill="#999999" stroke="transparent" points="283.5,-422 283.5,-424 460.5,-424 460.5,-422 283.5,-422"/>
<polygon fill="#ff66cc" stroke="transparent" points="283.5,-420 283.5,-422 460.5,-422 460.5,-420 283.5,-420"/>
<polygon fill="#999999" stroke="transparent" points="283.5,-418 283.5,-420 460.5,-420 460.5,-418 283.5,-418"/>
<polygon fill="#000000" stroke="transparent" points="283.5,-416 283.5,-418 460.5,-418 460.5,-416 283.5,-416"/>
<text text-anchor="start" x="292.5" y="-402.8" font-family="arial" font-size="14.00" fill="#000000">X1:11</text>
<text text-anchor="start" x="347.5" y="-402.8" font-family="arial" font-size="14.00" fill="#000000">RDBU</text>
<text text-anchor="start" x="405.5" y="-402.8" font-family="arial" font-size="14.00" fill="#000000">X2:d32</text>
<polygon fill="#000000" stroke="transparent" points="283.5,-395 283.5,-397 460.5,-397 460.5,-395 283.5,-395"/>
<polygon fill="#ff0000" stroke="transparent" points="283.5,-393 283.5,-395 460.5,-395 460.5,-393 283.5,-393"/>
<polygon fill="#0066ff" stroke="transparent" points="283.5,-391 283.5,-393 460.5,-393 460.5,-391 283.5,-391"/>
<polygon fill="#ff0000" stroke="transparent" points="283.5,-389 283.5,-391 460.5,-391 460.5,-389 283.5,-389"/>
<polygon fill="#000000" stroke="transparent" points="283.5,-387 283.5,-389 460.5,-389 460.5,-387 283.5,-387"/>
<text text-anchor="start" x="309.5" y="-373.8" font-family="arial" font-size="14.00" fill="#000000"> </text>
<text text-anchor="start" x="292" y="-354.8" font-family="arial" font-size="14.00" fill="#000000">X1:13</text>
<text text-anchor="start" x="348" y="-354.8" font-family="arial" font-size="14.00" fill="#000000">Shield</text>
<polygon fill="#000000" stroke="transparent" points="283.5,-347 283.5,-349 460.5,-349 460.5,-347 283.5,-347"/>
<text text-anchor="start" x="309.5" y="-333.8" font-family="arial" font-size="14.00" fill="#000000"> </text>
</g>
<!-- X1&#45;&#45;W1 -->
<g id="edge1" class="edge">
<title>X1:e&#45;&#45;W1:w</title>
<path fill="none" stroke="#000000" stroke-width="2" d="M139,-671C204.9088,-671.3389 220.8138,-678.3389 283.5,-678"/>
<path fill="none" stroke="#895956" stroke-width="2" d="M139,-673C204.1032,-673.1694 220.0081,-680.1694 283.5,-680"/>
<path fill="none" stroke="#895956" stroke-width="2" d="M139,-675C203.2975,-675 219.2025,-682 283.5,-682"/>
<path fill="none" stroke="#895956" stroke-width="2" d="M139,-677C202.4919,-676.8306 218.3968,-683.8306 283.5,-684"/>
<path fill="none" stroke="#000000" stroke-width="2" d="M139,-679C201.6862,-678.6611 217.5912,-685.6611 283.5,-686"/>
</g>
<!-- X1&#45;&#45;W1 -->
<g id="edge3" class="edge">
<title>X1:e&#45;&#45;W1:w</title>
<path fill="none" stroke="#000000" stroke-width="2" d="M139,-648C212.3504,-651.6112 218.1118,-710.6112 283.5,-707"/>
<path fill="none" stroke="#ffffff" stroke-width="2" d="M139,-650C210.3598,-651.8056 216.1212,-710.8056 283.5,-709"/>
<path fill="none" stroke="#ffffff" stroke-width="2" d="M139,-652C208.3693,-652 214.1307,-711 283.5,-711"/>
<path fill="none" stroke="#ffffff" stroke-width="2" d="M139,-654C206.3788,-652.1944 212.1402,-711.1944 283.5,-713"/>
<path fill="none" stroke="#000000" stroke-width="2" d="M139,-656C204.3882,-652.3888 210.1496,-711.3888 283.5,-715"/>
</g>
<!-- X1&#45;&#45;W1 -->
<g id="edge5" class="edge">
<title>X1:e&#45;&#45;W1:w</title>
<path fill="none" stroke="#000000" stroke-width="2" d="M139,-625C202.0661,-625.1825 218.0448,-620.1825 283.5,-620"/>
<path fill="none" stroke="#ffff00" stroke-width="2" d="M139,-627C202.6634,-627.0913 218.6421,-622.0913 283.5,-622"/>
<path fill="none" stroke="#ffff00" stroke-width="2" d="M139,-629C203.2607,-629 219.2393,-624 283.5,-624"/>
<path fill="none" stroke="#ffff00" stroke-width="2" d="M139,-631C203.8579,-630.9087 219.8366,-625.9087 283.5,-626"/>
<path fill="none" stroke="#000000" stroke-width="2" d="M139,-633C204.4552,-632.8175 220.4339,-627.8175 283.5,-628"/>
</g>
<!-- X1&#45;&#45;W1 -->
<g id="edge7" class="edge">
<title>X1:e&#45;&#45;W1:w</title>
<path fill="none" stroke="#000000" stroke-width="2" d="M139,-602C210.4558,-605.213 219.8878,-652.213 283.5,-649"/>
<path fill="none" stroke="#00ff00" stroke-width="2" d="M139,-604C208.4949,-605.6065 217.9269,-652.6065 283.5,-651"/>
<path fill="none" stroke="#00ff00" stroke-width="2" d="M139,-606C206.534,-606 215.966,-653 283.5,-653"/>
<path fill="none" stroke="#00ff00" stroke-width="2" d="M139,-608C204.5731,-606.3935 214.0051,-653.3935 283.5,-655"/>
<path fill="none" stroke="#000000" stroke-width="2" d="M139,-610C202.6122,-606.787 212.0442,-653.787 283.5,-657"/>
</g>
<!-- X1&#45;&#45;W1 -->
<g id="edge9" class="edge">
<title>X1:e&#45;&#45;W1:w</title>
<path fill="none" stroke="#000000" stroke-width="2" d="M139,-579C200.6806,-580.3368 215.8503,-563.3368 283.5,-562"/>
<path fill="none" stroke="#ff66cc" stroke-width="2" d="M139,-581C202.1729,-581.6684 217.3426,-564.6684 283.5,-564"/>
<path fill="none" stroke="#ff66cc" stroke-width="2" d="M139,-583C203.6651,-583 218.8349,-566 283.5,-566"/>
<path fill="none" stroke="#ff66cc" stroke-width="2" d="M139,-585C205.1574,-584.3316 220.3271,-567.3316 283.5,-568"/>
<path fill="none" stroke="#000000" stroke-width="2" d="M139,-587C206.6497,-585.6632 221.8194,-568.6632 283.5,-570"/>
</g>
<!-- X1&#45;&#45;W1 -->
<g id="edge11" class="edge">
<title>X1:e&#45;&#45;W1:w</title>
<path fill="none" stroke="#000000" stroke-width="2" d="M139,-555C208.9759,-557.7228 221.1053,-593.7228 283.5,-591"/>
<path fill="none" stroke="#999999" stroke-width="2" d="M139,-557C207.0806,-558.3614 219.21,-594.3614 283.5,-593"/>
<path fill="none" stroke="#999999" stroke-width="2" d="M139,-559C205.1853,-559 217.3147,-595 283.5,-595"/>
<path fill="none" stroke="#999999" stroke-width="2" d="M139,-561C203.29,-559.6386 215.4194,-595.6386 283.5,-597"/>
<path fill="none" stroke="#000000" stroke-width="2" d="M139,-563C201.3947,-560.2772 213.5241,-596.2772 283.5,-599"/>
</g>
<!-- X1&#45;&#45;W1 -->
<g id="edge13" class="edge">
<title>X1:e&#45;&#45;W1:w</title>
<path fill="none" stroke="#000000" stroke-width="2" d="M139,-532C200.8221,-534.2455 214.4885,-506.2455 283.5,-504"/>
<path fill="none" stroke="#ff0000" stroke-width="2" d="M139,-534C202.6195,-535.1227 216.2859,-507.1227 283.5,-506"/>
<path fill="none" stroke="#ff0000" stroke-width="2" d="M139,-536C204.4168,-536 218.0832,-508 283.5,-508"/>
<path fill="none" stroke="#ff0000" stroke-width="2" d="M139,-538C206.2141,-536.8773 219.8805,-508.8773 283.5,-510"/>
<path fill="none" stroke="#000000" stroke-width="2" d="M139,-540C208.0115,-537.7545 221.6779,-509.7545 283.5,-512"/>
</g>
<!-- X1&#45;&#45;W1 -->
<g id="edge15" class="edge">
<title>X1:e&#45;&#45;W1:w</title>
<path fill="none" stroke="#000000" stroke-width="2" d="M139,-509C207.5385,-510.953 221.8345,-534.953 283.5,-533"/>
<path fill="none" stroke="#0066ff" stroke-width="2" d="M139,-511C205.8203,-511.9765 220.1163,-535.9765 283.5,-535"/>
<path fill="none" stroke="#0066ff" stroke-width="2" d="M139,-513C204.102,-513 218.398,-537 283.5,-537"/>
<path fill="none" stroke="#0066ff" stroke-width="2" d="M139,-515C202.3837,-514.0235 216.6797,-538.0235 283.5,-539"/>
<path fill="none" stroke="#000000" stroke-width="2" d="M139,-517C200.6655,-515.047 214.9615,-539.047 283.5,-541"/>
</g>
<!-- X1&#45;&#45;W1 -->
<g id="edge17" class="edge">
<title>X1:e&#45;&#45;W1:w</title>
<path fill="none" stroke="#000000" stroke-width="2" d="M139,-486C201.7862,-488.9192 213.0114,-448.9192 283.5,-446"/>
<path fill="none" stroke="#8000ff" stroke-width="2" d="M139,-488C203.7118,-489.4596 214.937,-449.4596 283.5,-448"/>
<path fill="none" stroke="#8000ff" stroke-width="2" d="M139,-490C205.6374,-490 216.8626,-450 283.5,-450"/>
<path fill="none" stroke="#8000ff" stroke-width="2" d="M139,-492C207.563,-490.5404 218.7882,-450.5404 283.5,-452"/>
<path fill="none" stroke="#000000" stroke-width="2" d="M139,-494C209.4886,-491.0808 220.7138,-451.0808 283.5,-454"/>
</g>
<!-- X1&#45;&#45;W1 -->
<g id="edge19" class="edge">
<title>X1:e&#45;&#45;W1:w</title>
<path fill="none" stroke="#000000" stroke-width="2" d="M139,-463C205.8808,-463.8285 221.4942,-475.8285 283.5,-475"/>
<path fill="none" stroke="#000000" stroke-width="2" d="M139,-465C204.6621,-465.4142 220.2755,-477.4142 283.5,-477"/>
<path fill="none" stroke="#000000" stroke-width="2" d="M139,-467C203.4433,-467 219.0567,-479 283.5,-479"/>
<path fill="none" stroke="#000000" stroke-width="2" d="M139,-469C202.2245,-468.5858 217.8379,-480.5858 283.5,-481"/>
<path fill="none" stroke="#000000" stroke-width="2" d="M139,-471C201.0058,-470.1715 216.6192,-482.1715 283.5,-483"/>
</g>
<!-- X1&#45;&#45;W1 -->
<g id="edge21" class="edge">
<title>X1:e&#45;&#45;W1:w</title>
<path fill="none" stroke="#000000" stroke-width="2" d="M139,-440C203.3005,-443.3924 211.2924,-391.3924 283.5,-388"/>
<path fill="none" stroke="#ff0000" stroke-width="2" d="M139,-442C205.2773,-443.6962 213.2691,-391.6962 283.5,-390"/>
<path fill="none" stroke="#0066ff" stroke-width="2" d="M139,-444C207.2541,-444 215.2459,-392 283.5,-392"/>
<path fill="none" stroke="#ff0000" stroke-width="2" d="M139,-446C209.2309,-444.3038 217.2227,-392.3038 283.5,-394"/>
<path fill="none" stroke="#000000" stroke-width="2" d="M139,-448C211.2076,-444.6076 219.1995,-392.6076 283.5,-396"/>
</g>
<!-- X1&#45;&#45;W1 -->
<g id="edge23" class="edge">
<title>X1:e&#45;&#45;W1:w</title>
<path fill="none" stroke="#000000" stroke-width="2" d="M139,-417C203.2222,-417 219.2778,-417 283.5,-417"/>
<path fill="none" stroke="#999999" stroke-width="2" d="M139,-419C203.2222,-419 219.2778,-419 283.5,-419"/>
<path fill="none" stroke="#ff66cc" stroke-width="2" d="M139,-421C203.2222,-421 219.2778,-421 283.5,-421"/>
<path fill="none" stroke="#999999" stroke-width="2" d="M139,-423C203.2222,-423 219.2778,-423 283.5,-423"/>
<path fill="none" stroke="#000000" stroke-width="2" d="M139,-425C203.2222,-425 219.2778,-425 283.5,-425"/>
</g>
<!-- X1&#45;&#45;W1 -->
<g id="edge25" class="edge">
<title>X1:e&#45;&#45;W1:w</title>
<path fill="none" stroke="#000000" stroke-width="2" d="M139,-398C206.9582,-398 215.5418,-348 283.5,-348"/>
</g>
<!-- X2 -->
<g id="node2" class="node">
<title>X2</title>
<polygon fill="#ffffff" stroke="transparent" points="739,-1150 604,-1150 604,0 739,0 739,-1150"/>
<polygon fill="none" stroke="#000000" points="604.5,-1127 604.5,-1150 739.5,-1150 739.5,-1127 604.5,-1127"/>
<text text-anchor="start" x="662.5" y="-1134.8" font-family="arial" font-size="14.00" fill="#000000">X2</text>
<polygon fill="none" stroke="#000000" points="604.5,-1104 604.5,-1127 638.5,-1127 638.5,-1104 604.5,-1104"/>
<text text-anchor="start" x="608.5" y="-1111.8" font-family="arial" font-size="14.00" fill="#000000">F48</text>
<polygon fill="none" stroke="#000000" points="638.5,-1104 638.5,-1127 690.5,-1127 690.5,-1104 638.5,-1104"/>
<text text-anchor="start" x="642.5" y="-1111.8" font-family="arial" font-size="14.00" fill="#000000">female</text>
<polygon fill="none" stroke="#000000" points="690.5,-1104 690.5,-1127 739.5,-1127 739.5,-1104 690.5,-1104"/>
<text text-anchor="start" x="694.5" y="-1111.8" font-family="arial" font-size="14.00" fill="#000000">48&#45;pin</text>
<polygon fill="none" stroke="#000000" points="604.5,-1081 604.5,-1104 739.5,-1104 739.5,-1081 604.5,-1081"/>
<text text-anchor="start" x="664" y="-1088.8" font-family="arial" font-size="14.00" fill="#000000">z2</text>
<polygon fill="none" stroke="#000000" points="604.5,-1058 604.5,-1081 739.5,-1081 739.5,-1058 604.5,-1058"/>
<text text-anchor="start" x="663.5" y="-1065.8" font-family="arial" font-size="14.00" fill="#000000">b2</text>
<polygon fill="none" stroke="#000000" points="604.5,-1035 604.5,-1058 739.5,-1058 739.5,-1035 604.5,-1035"/>
<text text-anchor="start" x="663.5" y="-1042.8" font-family="arial" font-size="14.00" fill="#000000">d2</text>
<polygon fill="none" stroke="#000000" points="604.5,-1012 604.5,-1035 739.5,-1035 739.5,-1012 604.5,-1012"/>
<text text-anchor="start" x="664" y="-1019.8" font-family="arial" font-size="14.00" fill="#000000">z4</text>
<polygon fill="none" stroke="#000000" points="604.5,-989 604.5,-1012 739.5,-1012 739.5,-989 604.5,-989"/>
<text text-anchor="start" x="663.5" y="-996.8" font-family="arial" font-size="14.00" fill="#000000">b4</text>
<polygon fill="none" stroke="#000000" points="604.5,-966 604.5,-989 739.5,-989 739.5,-966 604.5,-966"/>
<text text-anchor="start" x="663.5" y="-973.8" font-family="arial" font-size="14.00" fill="#000000">d4</text>
<polygon fill="none" stroke="#000000" points="604.5,-943 604.5,-966 739.5,-966 739.5,-943 604.5,-943"/>
<text text-anchor="start" x="664" y="-950.8" font-family="arial" font-size="14.00" fill="#000000">z6</text>
<polygon fill="none" stroke="#000000" points="604.5,-920 604.5,-943 739.5,-943 739.5,-920 604.5,-920"/>
<text text-anchor="start" x="663.5" y="-927.8" font-family="arial" font-size="14.00" fill="#000000">b6</text>
<polygon fill="none" stroke="#000000" points="604.5,-897 604.5,-920 739.5,-920 739.5,-897 604.5,-897"/>
<text text-anchor="start" x="663.5" y="-904.8" font-family="arial" font-size="14.00" fill="#000000">d6</text>
<polygon fill="none" stroke="#000000" points="604.5,-874 604.5,-897 739.5,-897 739.5,-874 604.5,-874"/>
<text text-anchor="start" x="664" y="-881.8" font-family="arial" font-size="14.00" fill="#000000">z8</text>
<polygon fill="none" stroke="#000000" points="604.5,-851 604.5,-874 739.5,-874 739.5,-851 604.5,-851"/>
<text text-anchor="start" x="663.5" y="-858.8" font-family="arial" font-size="14.00" fill="#000000">b8</text>
<polygon fill="none" stroke="#000000" points="604.5,-828 604.5,-851 739.5,-851 739.5,-828 604.5,-828"/>
<text text-anchor="start" x="663.5" y="-835.8" font-family="arial" font-size="14.00" fill="#000000">d8</text>
<polygon fill="none" stroke="#000000" points="604.5,-805 604.5,-828 739.5,-828 739.5,-805 604.5,-805"/>
<text text-anchor="start" x="659.5" y="-812.8" font-family="arial" font-size="14.00" fill="#000000">z10</text>
<polygon fill="none" stroke="#000000" points="604.5,-782 604.5,-805 739.5,-805 739.5,-782 604.5,-782"/>
<text text-anchor="start" x="659.5" y="-789.8" font-family="arial" font-size="14.00" fill="#000000">b10</text>
<polygon fill="none" stroke="#000000" points="604.5,-759 604.5,-782 739.5,-782 739.5,-759 604.5,-759"/>
<text text-anchor="start" x="659.5" y="-766.8" font-family="arial" font-size="14.00" fill="#000000">d10</text>
<polygon fill="none" stroke="#000000" points="604.5,-736 604.5,-759 739.5,-759 739.5,-736 604.5,-736"/>
<text text-anchor="start" x="659.5" y="-743.8" font-family="arial" font-size="14.00" fill="#000000">z12</text>
<polygon fill="none" stroke="#000000" points="604.5,-713 604.5,-736 739.5,-736 739.5,-713 604.5,-713"/>
<text text-anchor="start" x="659.5" y="-720.8" font-family="arial" font-size="14.00" fill="#000000">b12</text>
<polygon fill="none" stroke="#000000" points="604.5,-690 604.5,-713 739.5,-713 739.5,-690 604.5,-690"/>
<text text-anchor="start" x="659.5" y="-697.8" font-family="arial" font-size="14.00" fill="#000000">d12</text>
<polygon fill="none" stroke="#000000" points="604.5,-667 604.5,-690 739.5,-690 739.5,-667 604.5,-667"/>
<text text-anchor="start" x="659.5" y="-674.8" font-family="arial" font-size="14.00" fill="#000000">z14</text>
<polygon fill="none" stroke="#000000" points="604.5,-644 604.5,-667 739.5,-667 739.5,-644 604.5,-644"/>
<text text-anchor="start" x="659.5" y="-651.8" font-family="arial" font-size="14.00" fill="#000000">b14</text>
<polygon fill="none" stroke="#000000" points="604.5,-621 604.5,-644 739.5,-644 739.5,-621 604.5,-621"/>
<text text-anchor="start" x="659.5" y="-628.8" font-family="arial" font-size="14.00" fill="#000000">d14</text>
<polygon fill="none" stroke="#000000" points="604.5,-598 604.5,-621 739.5,-621 739.5,-598 604.5,-598"/>
<text text-anchor="start" x="659.5" y="-605.8" font-family="arial" font-size="14.00" fill="#000000">z16</text>
<polygon fill="none" stroke="#000000" points="604.5,-575 604.5,-598 739.5,-598 739.5,-575 604.5,-575"/>
<text text-anchor="start" x="659.5" y="-582.8" font-family="arial" font-size="14.00" fill="#000000">b16</text>
<polygon fill="none" stroke="#000000" points="604.5,-552 604.5,-575 739.5,-575 739.5,-552 604.5,-552"/>
<text text-anchor="start" x="659.5" y="-559.8" font-family="arial" font-size="14.00" fill="#000000">d16</text>
<polygon fill="none" stroke="#000000" points="604.5,-529 604.5,-552 739.5,-552 739.5,-529 604.5,-529"/>
<text text-anchor="start" x="659.5" y="-536.8" font-family="arial" font-size="14.00" fill="#000000">z18</text>
<polygon fill="none" stroke="#000000" points="604.5,-506 604.5,-529 739.5,-529 739.5,-506 604.5,-506"/>
<text text-anchor="start" x="659.5" y="-513.8" font-family="arial" font-size="14.00" fill="#000000">b18</text>
<polygon fill="none" stroke="#000000" points="604.5,-483 604.5,-506 739.5,-506 739.5,-483 604.5,-483"/>
<text text-anchor="start" x="659.5" y="-490.8" font-family="arial" font-size="14.00" fill="#000000">d18</text>
<polygon fill="none" stroke="#000000" points="604.5,-460 604.5,-483 739.5,-483 739.5,-460 604.5,-460"/>
<text text-anchor="start" x="659.5" y="-467.8" font-family="arial" font-size="14.00" fill="#000000">z20</text>
<polygon fill="none" stroke="#000000" points="604.5,-437 604.5,-460 739.5,-460 739.5,-437 604.5,-437"/>
<text text-anchor="start" x="659.5" y="-444.8" font-family="arial" font-size="14.00" fill="#000000">b20</text>
<polygon fill="none" stroke="#000000" points="604.5,-414 604.5,-437 739.5,-437 739.5,-414 604.5,-414"/>
<text text-anchor="start" x="659.5" y="-421.8" font-family="arial" font-size="14.00" fill="#000000">d20</text>
<polygon fill="none" stroke="#000000" points="604.5,-391 604.5,-414 739.5,-414 739.5,-391 604.5,-391"/>
<text text-anchor="start" x="659.5" y="-398.8" font-family="arial" font-size="14.00" fill="#000000">z22</text>
<polygon fill="none" stroke="#000000" points="604.5,-368 604.5,-391 739.5,-391 739.5,-368 604.5,-368"/>
<text text-anchor="start" x="659.5" y="-375.8" font-family="arial" font-size="14.00" fill="#000000">b22</text>
<polygon fill="none" stroke="#000000" points="604.5,-345 604.5,-368 739.5,-368 739.5,-345 604.5,-345"/>
<text text-anchor="start" x="659.5" y="-352.8" font-family="arial" font-size="14.00" fill="#000000">d22</text>
<polygon fill="none" stroke="#000000" points="604.5,-322 604.5,-345 739.5,-345 739.5,-322 604.5,-322"/>
<text text-anchor="start" x="659.5" y="-329.8" font-family="arial" font-size="14.00" fill="#000000">z24</text>
<polygon fill="none" stroke="#000000" points="604.5,-299 604.5,-322 739.5,-322 739.5,-299 604.5,-299"/>
<text text-anchor="start" x="659.5" y="-306.8" font-family="arial" font-size="14.00" fill="#000000">b24</text>
<polygon fill="none" stroke="#000000" points="604.5,-276 604.5,-299 739.5,-299 739.5,-276 604.5,-276"/>
<text text-anchor="start" x="659.5" y="-283.8" font-family="arial" font-size="14.00" fill="#000000">d24</text>
<polygon fill="none" stroke="#000000" points="604.5,-253 604.5,-276 739.5,-276 739.5,-253 604.5,-253"/>
<text text-anchor="start" x="659.5" y="-260.8" font-family="arial" font-size="14.00" fill="#000000">z26</text>
<polygon fill="none" stroke="#000000" points="604.5,-230 604.5,-253 739.5,-253 739.5,-230 604.5,-230"/>
<text text-anchor="start" x="659.5" y="-237.8" font-family="arial" font-size="14.00" fill="#000000">b26</text>
<polygon fill="none" stroke="#000000" points="604.5,-207 604.5,-230 739.5,-230 739.5,-207 604.5,-207"/>
<text text-anchor="start" x="659.5" y="-214.8" font-family="arial" font-size="14.00" fill="#000000">d26</text>
<polygon fill="none" stroke="#000000" points="604.5,-184 604.5,-207 739.5,-207 739.5,-184 604.5,-184"/>
<text text-anchor="start" x="659.5" y="-191.8" font-family="arial" font-size="14.00" fill="#000000">z28</text>
<polygon fill="none" stroke="#000000" points="604.5,-161 604.5,-184 739.5,-184 739.5,-161 604.5,-161"/>
<text text-anchor="start" x="659.5" y="-168.8" font-family="arial" font-size="14.00" fill="#000000">b28</text>
<polygon fill="none" stroke="#000000" points="604.5,-138 604.5,-161 739.5,-161 739.5,-138 604.5,-138"/>
<text text-anchor="start" x="659.5" y="-145.8" font-family="arial" font-size="14.00" fill="#000000">d28</text>
<polygon fill="none" stroke="#000000" points="604.5,-115 604.5,-138 739.5,-138 739.5,-115 604.5,-115"/>
<text text-anchor="start" x="659.5" y="-122.8" font-family="arial" font-size="14.00" fill="#000000">z30</text>
<polygon fill="none" stroke="#000000" points="604.5,-92 604.5,-115 739.5,-115 739.5,-92 604.5,-92"/>
<text text-anchor="start" x="659.5" y="-99.8" font-family="arial" font-size="14.00" fill="#000000">b30</text>
<polygon fill="none" stroke="#000000" points="604.5,-69 604.5,-92 739.5,-92 739.5,-69 604.5,-69"/>
<text text-anchor="start" x="659.5" y="-76.8" font-family="arial" font-size="14.00" fill="#000000">d30</text>
<polygon fill="none" stroke="#000000" points="604.5,-46 604.5,-69 739.5,-69 739.5,-46 604.5,-46"/>
<text text-anchor="start" x="659.5" y="-53.8" font-family="arial" font-size="14.00" fill="#000000">z32</text>
<polygon fill="none" stroke="#000000" points="604.5,-23 604.5,-46 739.5,-46 739.5,-23 604.5,-23"/>
<text text-anchor="start" x="659.5" y="-30.8" font-family="arial" font-size="14.00" fill="#000000">b32</text>
<polygon fill="none" stroke="#000000" points="604.5,0 604.5,-23 739.5,-23 739.5,0 604.5,0"/>
<text text-anchor="start" x="659.5" y="-7.8" font-family="arial" font-size="14.00" fill="#000000">d32</text>
</g>
<!-- W1&#45;&#45;X2 -->
<g id="edge2" class="edge">
<title>W1:e&#45;&#45;X2:w</title>
<path fill="none" stroke="#000000" stroke-width="2" d="M460,-678C609.9708,-683.7916 461.6818,-979.7916 604.5,-974"/>
<path fill="none" stroke="#895956" stroke-width="2" d="M460,-680C608.1827,-682.8958 459.8936,-978.8958 604.5,-976"/>
<path fill="none" stroke="#895956" stroke-width="2" d="M460,-682C606.3945,-682 458.1055,-978 604.5,-978"/>
<path fill="none" stroke="#895956" stroke-width="2" d="M460,-684C604.6064,-681.1042 456.3173,-977.1042 604.5,-980"/>
<path fill="none" stroke="#000000" stroke-width="2" d="M460,-686C602.8182,-680.2084 454.5292,-976.2084 604.5,-982"/>
</g>
<!-- W1&#45;&#45;X2 -->
<g id="edge4" class="edge">
<title>W1:e&#45;&#45;X2:w</title>
<path fill="none" stroke="#000000" stroke-width="2" d="M460,-707C644.9905,-712.9863 426.4534,-1094.9863 604.5,-1089"/>
<path fill="none" stroke="#ffffff" stroke-width="2" d="M460,-709C643.2546,-711.9931 424.7174,-1093.9931 604.5,-1091"/>
<path fill="none" stroke="#ffffff" stroke-width="2" d="M460,-711C641.5186,-711 422.9814,-1093 604.5,-1093"/>
<path fill="none" stroke="#ffffff" stroke-width="2" d="M460,-713C639.7826,-710.0069 421.2454,-1092.0069 604.5,-1095"/>
<path fill="none" stroke="#000000" stroke-width="2" d="M460,-715C638.0466,-709.0137 419.5095,-1091.0137 604.5,-1097"/>
</g>
<!-- W1&#45;&#45;X2 -->
<g id="edge6" class="edge">
<title>W1:e&#45;&#45;X2:w</title>
<path fill="none" stroke="#000000" stroke-width="2" d="M460,-620C555.481,-625.019 516.755,-772.019 604.5,-767"/>
<path fill="none" stroke="#ffff00" stroke-width="2" d="M460,-622C553.547,-624.5095 514.821,-771.5095 604.5,-769"/>
<path fill="none" stroke="#ffff00" stroke-width="2" d="M460,-624C551.613,-624 512.887,-771 604.5,-771"/>
<path fill="none" stroke="#ffff00" stroke-width="2" d="M460,-626C549.679,-623.4905 510.953,-770.4905 604.5,-773"/>
<path fill="none" stroke="#000000" stroke-width="2" d="M460,-628C547.745,-622.981 509.019,-769.981 604.5,-775"/>
</g>
<!-- W1&#45;&#45;X2 -->
<g id="edge8" class="edge">
<title>W1:e&#45;&#45;X2:w</title>
<path fill="none" stroke="#000000" stroke-width="2" d="M460,-649C585.5337,-654.567 486.3269,-887.567 604.5,-882"/>
<path fill="none" stroke="#00ff00" stroke-width="2" d="M460,-651C583.6935,-653.7835 484.4868,-886.7835 604.5,-884"/>
<path fill="none" stroke="#00ff00" stroke-width="2" d="M460,-653C581.8534,-653 482.6466,-886 604.5,-886"/>
<path fill="none" stroke="#00ff00" stroke-width="2" d="M460,-655C580.0132,-652.2165 480.8065,-885.2165 604.5,-888"/>
<path fill="none" stroke="#000000" stroke-width="2" d="M460,-657C578.1731,-651.433 478.9663,-884.433 604.5,-890"/>
</g>
<!-- W1&#45;&#45;X2 -->
<g id="edge10" class="edge">
<title>W1:e&#45;&#45;X2:w</title>
<path fill="none" stroke="#000000" stroke-width="2" d="M460,-562C523.5001,-562.0683 539.528,-559.0683 604.5,-559"/>
<path fill="none" stroke="#ff66cc" stroke-width="2" d="M460,-564C523.8681,-564.0341 539.896,-561.0341 604.5,-561"/>
<path fill="none" stroke="#ff66cc" stroke-width="2" d="M460,-566C524.2361,-566 540.2639,-563 604.5,-563"/>
<path fill="none" stroke="#ff66cc" stroke-width="2" d="M460,-568C524.604,-567.9659 540.6319,-564.9659 604.5,-565"/>
<path fill="none" stroke="#000000" stroke-width="2" d="M460,-570C524.972,-569.9317 540.9999,-566.9317 604.5,-567"/>
</g>
<!-- W1&#45;&#45;X2 -->
<g id="edge12" class="edge">
<title>W1:e&#45;&#45;X2:w</title>
<path fill="none" stroke="#000000" stroke-width="2" d="M460,-591C538.2804,-595.1936 534.2102,-679.1936 604.5,-675"/>
<path fill="none" stroke="#999999" stroke-width="2" d="M460,-593C536.2827,-595.0968 532.2126,-679.0968 604.5,-677"/>
<path fill="none" stroke="#999999" stroke-width="2" d="M460,-595C534.2851,-595 530.2149,-679 604.5,-679"/>
<path fill="none" stroke="#999999" stroke-width="2" d="M460,-597C532.2874,-594.9032 528.2173,-678.9032 604.5,-681"/>
<path fill="none" stroke="#000000" stroke-width="2" d="M460,-599C530.2898,-594.8064 526.2196,-678.8064 604.5,-683"/>
</g>
<!-- W1&#45;&#45;X2 -->
<g id="edge14" class="edge">
<title>W1:e&#45;&#45;X2:w</title>
<path fill="none" stroke="#000000" stroke-width="2" d="M460,-504C530.0665,-508.1746 526.4411,-425.1746 604.5,-421"/>
<path fill="none" stroke="#ff0000" stroke-width="2" d="M460,-506C532.0646,-508.0873 528.4392,-425.0873 604.5,-423"/>
<path fill="none" stroke="#ff0000" stroke-width="2" d="M460,-508C534.0627,-508 530.4373,-425 604.5,-425"/>
<path fill="none" stroke="#ff0000" stroke-width="2" d="M460,-510C536.0608,-507.9127 532.4354,-424.9127 604.5,-427"/>
<path fill="none" stroke="#000000" stroke-width="2" d="M460,-512C538.0589,-507.8254 534.4335,-424.8254 604.5,-429"/>
</g>
<!-- W1&#45;&#45;X2 -->
<g id="edge16" class="edge">
<title>W1:e&#45;&#45;X2:w</title>
<path fill="none" stroke="#000000" stroke-width="2" d="M460,-533C524.972,-533.0683 540.9999,-536.0683 604.5,-536"/>
<path fill="none" stroke="#0066ff" stroke-width="2" d="M460,-535C524.604,-535.0341 540.6319,-538.0341 604.5,-538"/>
<path fill="none" stroke="#0066ff" stroke-width="2" d="M460,-537C524.2361,-537 540.2639,-540 604.5,-540"/>
<path fill="none" stroke="#0066ff" stroke-width="2" d="M460,-539C523.8681,-538.9659 539.896,-541.9659 604.5,-542"/>
<path fill="none" stroke="#000000" stroke-width="2" d="M460,-541C523.5001,-540.9317 539.528,-543.9317 604.5,-544"/>
</g>
<!-- W1&#45;&#45;X2 -->
<g id="edge18" class="edge">
<title>W1:e&#45;&#45;X2:w</title>
<path fill="none" stroke="#000000" stroke-width="2" d="M460,-446C577.7937,-451.5626 479.3419,-219.5626 604.5,-214"/>
<path fill="none" stroke="#8000ff" stroke-width="2" d="M460,-448C579.6348,-450.7813 481.183,-218.7813 604.5,-216"/>
<path fill="none" stroke="#8000ff" stroke-width="2" d="M460,-450C581.4759,-450 483.0241,-218 604.5,-218"/>
<path fill="none" stroke="#8000ff" stroke-width="2" d="M460,-452C583.317,-449.2187 484.8652,-217.2187 604.5,-220"/>
<path fill="none" stroke="#000000" stroke-width="2" d="M460,-454C585.1581,-448.4374 486.7063,-216.4374 604.5,-222"/>
</g>
<!-- W1&#45;&#45;X2 -->
<g id="edge20" class="edge">
<title>W1:e&#45;&#45;X2:w</title>
<path fill="none" stroke="#000000" stroke-width="2" d="M460,-475C547.4261,-480.0098 509.333,-334.0098 604.5,-329"/>
<path fill="none" stroke="#000000" stroke-width="2" d="M460,-477C549.3613,-479.5049 511.2682,-333.5049 604.5,-331"/>
<path fill="none" stroke="#000000" stroke-width="2" d="M460,-479C551.2966,-479 513.2034,-333 604.5,-333"/>
<path fill="none" stroke="#000000" stroke-width="2" d="M460,-481C553.2318,-478.4951 515.1387,-332.4951 604.5,-335"/>
<path fill="none" stroke="#000000" stroke-width="2" d="M460,-483C555.167,-477.9902 517.0739,-331.9902 604.5,-337"/>
</g>
<!-- W1&#45;&#45;X2 -->
<g id="edge22" class="edge">
<title>W1:e&#45;&#45;X2:w</title>
<path fill="none" stroke="#000000" stroke-width="2" d="M460,-388C637.6299,-393.9845 419.9241,-12.9845 604.5,-7"/>
<path fill="none" stroke="#ff0000" stroke-width="2" d="M460,-390C639.3664,-392.9922 421.6606,-11.9922 604.5,-9"/>
<path fill="none" stroke="#0066ff" stroke-width="2" d="M460,-392C641.1029,-392 423.3971,-11 604.5,-11"/>
<path fill="none" stroke="#ff0000" stroke-width="2" d="M460,-394C642.8394,-391.0078 425.1336,-10.0078 604.5,-13"/>
<path fill="none" stroke="#000000" stroke-width="2" d="M460,-396C644.5759,-390.0155 426.8701,-9.0155 604.5,-15"/>
</g>
<!-- W1&#45;&#45;X2 -->
<g id="edge24" class="edge">
<title>W1:e&#45;&#45;X2:w</title>
<path fill="none" stroke="#000000" stroke-width="2" d="M460,-417C602.4175,-422.7888 454.927,-127.7888 604.5,-122"/>
<path fill="none" stroke="#999999" stroke-width="2" d="M460,-419C604.2064,-421.8944 456.7159,-126.8944 604.5,-124"/>
<path fill="none" stroke="#ff66cc" stroke-width="2" d="M460,-421C605.9953,-421 458.5047,-126 604.5,-126"/>
<path fill="none" stroke="#999999" stroke-width="2" d="M460,-423C607.7841,-420.1056 460.2936,-125.1056 604.5,-128"/>
<path fill="none" stroke="#000000" stroke-width="2" d="M460,-425C609.573,-419.2112 462.0825,-124.2112 604.5,-130"/>
</g>
</g>
</svg>
